<?xml version="1.0" standalone="no"?>
<!DOCTYPE svg PUBLIC "-//W3C//DTD SVG 20010904//EN"
 "http://www.w3.org/TR/2001/REC-SVG-20010904/DTD/svg10.dtd">
<svg version="1.0" xmlns="http://www.w3.org/2000/svg"
 width="1409.000000pt" height="1409.000000pt" viewBox="0 0 1409.000000 1409.000000"
 preserveAspectRatio="xMidYMid meet">
<metadata>
Created by potrace 1.16, written by Peter Selinger 2001-2019
</metadata>
<g transform="translate(0.000000,1409.000000) scale(0.100000,-0.100000)"
fill="#000000" stroke="none">
<path d="M6844 11939 c-1041 -66 -1975 -665 -2493 -1597 -144 -259 -255 -564
-315 -868 -61 -306 -59 -206 -63 -2256 l-4 -1878 -405 0 c-352 0 -404 -2 -404
-15 0 -13 439 -15 3890 -15 l3890 0 0 25 0 25 -410 0 -409 0 -4 1888 c-4 2043
-1 1929 -57 2222 -119 627 -476 1254 -957 1682 -216 192 -432 339 -688 468
-379 191 -743 290 -1180 320 -166 11 -213 11 -391 -1z m596 -164 c460 -72 861
-224 1221 -461 242 -159 515 -406 684 -619 321 -403 533 -891 600 -1385 29
-210 37 -848 32 -2385 -4 -1070 -8 -1473 -17 -1508 -11 -44 -14 -48 -38 -45
-20 2 -28 11 -36 38 -6 21 -12 730 -16 1795 -5 1251 -10 1782 -18 1835 -18
117 -64 365 -68 369 -6 7 -5 -24 11 -214 39 -481 40 -526 40 -2192 l0 -1633
-823 0 c-649 0 -824 3 -827 13 -7 19 -65 530 -61 535 2 2 48 11 102 21 54 9
99 22 102 29 2 7 2 12 0 12 -26 2 -230 39 -234 43 -3 2 44 17 104 31 59 15
114 31 121 35 11 7 11 32 0 139 l-12 130 -61 11 c-34 6 -82 14 -109 17 -26 4
-51 12 -55 18 -3 6 -28 218 -53 471 -47 459 -48 485 -14 485 7 0 145 -142 306
-315 162 -173 297 -314 301 -312 16 5 529 539 526 547 -6 18 -838 798 -941
883 -254 209 -377 418 -394 667 -9 130 8 209 59 288 128 197 327 409 703 745
127 113 286 261 354 330 l124 125 -169 163 c-93 90 -215 209 -272 264 -76 74
-106 97 -116 90 -7 -6 -240 -250 -516 -542 -276 -293 -504 -533 -506 -533 -2
0 -32 20 -68 45 -74 52 -155 91 -229 111 -68 18 -209 18 -280 -1 -109 -28
-255 -116 -367 -221 l-46 -43 -509 549 -510 549 -188 -192 c-103 -106 -223
-231 -267 -279 l-81 -86 433 -409 c238 -225 522 -491 630 -592 214 -197 237
-228 259 -346 14 -73 6 -251 -15 -350 -51 -238 -160 -407 -375 -583 -58 -47
-142 -117 -186 -155 -115 -99 -626 -590 -623 -598 4 -10 542 -529 548 -529 6
1 133 168 139 182 1 5 -38 -19 -88 -54 l-91 -62 -226 225 -225 225 712 660
c391 362 717 662 723 666 7 4 34 1 61 -7 123 -37 187 -5 245 124 17 36 41 87
54 113 l23 46 -74 94 c-91 114 -180 207 -211 219 -14 6 -47 4 -92 -6 -38 -8
-118 -17 -177 -21 l-108 -6 -39 31 c-55 44 -352 319 -814 754 l-404 380 229
229 c125 125 231 228 234 228 6 0 1207 -1289 1297 -1391 l32 -36 -41 -57 -40
-57 51 -59 c68 -78 137 -139 167 -147 48 -12 159 4 216 30 75 34 201 129 226
171 33 53 28 113 -16 198 -48 90 -51 160 -13 226 14 23 136 157 271 299 136
142 389 411 564 598 174 187 322 340 329 340 11 0 447 -448 448 -460 0 -6
-900 -846 -1320 -1233 l-93 -86 -47 17 c-119 43 -186 10 -255 -128 -14 -27
-37 -67 -51 -89 l-27 -38 63 -87 c83 -115 159 -209 197 -245 l31 -30 77 19
c50 11 120 18 194 19 l116 1 74 -66 c213 -191 1169 -1089 1169 -1099 0 -8
-481 -425 -490 -425 -4 0 -68 66 -141 146 -74 80 -294 318 -490 530 -628 677
-594 638 -626 736 l-28 85 25 20 25 20 -86 83 c-135 128 -220 159 -316 116
-48 -22 -229 -188 -256 -235 -25 -43 -17 -90 29 -179 43 -83 50 -149 20 -205
-10 -19 -111 -132 -224 -251 -370 -388 -677 -725 -722 -790 -23 -35 -37 -61
-31 -57 6 4 77 63 158 132 81 68 148 122 149 121 7 -7 -70 -703 -78 -708 -5
-3 -51 -11 -102 -18 -51 -7 -99 -16 -105 -20 -18 -11 -47 -261 -32 -271 7 -4
51 -15 97 -25 68 -14 84 -21 84 -36 0 -22 -13 -26 -112 -34 -111 -10 -104 -28
20 -50 53 -9 100 -20 103 -24 4 -3 -4 -114 -17 -246 -13 -132 -23 -252 -24
-268 l0 -27 -822 2 -823 3 -7 70 c-11 124 -10 3326 2 3485 27 362 79 659 164
925 14 43 24 81 22 82 -2 2 -22 -39 -46 -92 -112 -256 -159 -474 -180 -825 -6
-103 -10 -864 -11 -1855 -1 -924 -4 -1707 -8 -1740 -6 -59 -7 -60 -38 -63 -30
-3 -32 -1 -40 35 -4 21 -8 873 -8 1893 0 2052 -3 1934 64 2230 278 1210 1311
2122 2561 2259 131 15 566 6 690 -14z m-304 -1915 c65 -23 204 -99 204 -112 0
-4 -134 -8 -297 -8 l-298 1 45 40 c45 41 102 75 150 90 48 14 136 9 196 -11z
m223 -156 c2 -1 -7 -17 -19 -35 -47 -65 -170 -120 -311 -138 -35 -5 -52 -9
-38 -10 57 -2 155 -41 188 -73 30 -29 71 -96 71 -115 0 -4 -89 -8 -198 -8
l-197 0 -67 33 c-39 19 -80 49 -98 70 l-30 37 22 8 c13 5 61 17 108 27 92 19
91 20 -41 39 -42 6 -116 23 -165 39 l-89 29 61 30 c69 36 144 59 229 72 52 8
564 4 574 -5z m-113 -428 c51 -24 124 -81 124 -97 0 -13 -327 -11 -372 1 -39
11 -119 66 -125 86 -5 15 109 31 232 33 75 1 98 -3 141 -23z m-6 -184 c0 -4
-22 -33 -50 -64 -58 -65 -108 -93 -156 -85 -43 7 -109 55 -158 112 l-37 45
201 0 c110 0 200 -4 200 -8z m-555 -121 c50 -22 109 -86 125 -136 7 -20 10
-59 8 -86 -6 -58 -53 -156 -88 -181 -40 -29 -132 -39 -282 -32 l-138 7 -6 34
c-11 58 2 163 23 191 30 40 67 63 120 77 l48 12 -75 8 -75 8 43 38 c83 73 212
99 297 60z m1105 -208 c0 -6 -4 -23 -10 -37 l-10 -26 -147 -1 c-170 -1 -162
-9 35 -35 72 -9 132 -20 132 -23 0 -3 -22 -21 -49 -39 -149 -102 -373 -95
-445 15 -63 96 -57 185 19 260 l42 42 216 -72 c122 -40 217 -77 217 -84z
m-730 -274 c25 -6 70 -22 101 -35 l57 -26 4 -81 c6 -114 40 -175 181 -323 103
-108 109 -116 93 -133 -21 -23 -20 -37 2 -46 9 -3 54 -26 99 -51 66 -36 80
-48 76 -64 -4 -14 -17 -21 -52 -25 -114 -14 -110 -18 54 -54 147 -32 156 -36
151 -55 -3 -12 -6 -29 -6 -38 0 -17 -17 -18 -207 -19 -190 -1 -204 -2 -158
-14 28 -7 84 -14 125 -14 163 -2 258 -33 308 -98 l25 -33 -222 0 c-214 0 -221
-1 -221 -20 0 -19 7 -20 173 -20 l173 0 59 -36 c33 -19 61 -37 63 -38 1 -2 -2
-15 -7 -30 l-11 -26 -227 0 c-181 -1 -224 -3 -208 -13 12 -7 86 -14 190 -17
143 -5 177 -9 216 -27 56 -25 63 -35 55 -79 l-7 -34 -262 -1 c-311 -1 -315
-17 -7 -28 182 -6 198 -8 240 -31 39 -22 45 -30 48 -63 l3 -37 -228 0 c-181
-1 -224 -3 -208 -12 12 -8 86 -15 185 -18 122 -5 174 -11 200 -23 61 -28 70
-40 63 -80 l-6 -37 -226 -1 c-273 0 -273 -17 -1 -29 131 -5 186 -12 218 -25
42 -17 43 -19 40 -59 l-3 -41 -252 -3 -253 -2 0 -30 0 -30 260 0 260 0 0 -40
0 -40 -960 0 c-761 0 -960 3 -960 13 0 6 -3 22 -6 35 l-6 22 261 0 261 0 0 35
0 35 -249 0 -249 0 -4 31 c-4 24 1 35 24 54 44 37 89 45 268 46 91 0 174 4
185 9 12 5 -73 9 -212 9 l-232 1 -7 35 c-9 49 -2 59 53 86 43 21 66 24 215 29
92 3 170 9 174 13 4 4 -90 7 -209 7 -120 0 -217 4 -217 8 0 19 89 93 130 107
29 10 104 19 207 25 88 4 169 13 180 19 13 7 -61 11 -272 11 l-290 1 45 41
c76 69 113 80 295 90 261 13 252 26 -17 27 -152 1 -238 5 -238 11 0 6 21 32
48 59 59 61 92 71 247 72 66 0 129 4 140 9 15 7 9 9 -26 9 -25 1 -87 4 -138 8
-87 6 -93 8 -102 31 -12 32 -15 30 140 83 69 23 121 44 116 46 -6 1 -34 6 -63
10 l-54 8 75 95 c42 52 105 121 141 153 47 41 74 75 97 122 29 60 31 71 26
138 -3 40 -16 102 -30 138 l-25 67 23 50 c39 84 151 192 199 192 12 0 41 -5
66 -11z m1144 -2173 c41 -17 58 -57 54 -127 l-3 -54 -1207 -3 -1207 -2 -7 57
c-8 69 6 100 56 125 33 17 109 18 1158 18 931 0 1128 -2 1156 -14z m-186 -283
c-3 -17 -58 -18 -968 -21 -575 -1 -968 2 -973 7 -5 5 -6 14 -3 20 5 8 290 11
977 11 919 0 970 -1 967 -17z m-503 -103 c296 -18 487 -44 545 -75 22 -12 -13
-14 -265 -16 -261 -1 -286 -2 -246 -15 27 -8 112 -15 225 -18 180 -5 257 -17
300 -49 15 -11 17 -21 12 -50 l-7 -37 -282 -1 c-241 -1 -276 -3 -242 -13 22
-7 106 -16 186 -19 167 -7 229 -24 297 -83 75 -64 76 -64 -248 -64 -283 0
-290 0 -290 -20 0 -20 7 -20 300 -20 l300 0 0 -30 0 -30 -438 0 -438 0 0 173
c-1 198 -14 249 -76 287 -86 52 -185 -1 -259 -140 -22 -42 -24 -55 -23 -188
l2 -142 -437 2 -436 3 -3 28 -3 27 305 0 306 0 0 30 0 30 -302 0 -302 0 34 35
c19 20 59 48 89 62 51 25 68 28 240 35 308 12 284 26 -46 27 -170 1 -293 5
-293 10 0 20 92 89 142 105 34 12 108 21 208 26 272 15 245 28 -60 29 -240 1
-272 3 -260 16 33 32 249 68 505 84 202 12 762 12 960 1z"/>
<path d="M6875 11690 c-55 -5 -127 -14 -160 -20 -64 -12 -367 -102 -361 -107
2 -2 131 10 287 27 608 65 738 56 1294 -96 153 -41 279 -73 281 -71 2 2 -45
27 -105 55 -204 96 -432 163 -673 197 -129 19 -431 27 -563 15z"/>
<path d="M6933 11249 l-111 -70 45 -135 45 -134 132 0 133 0 50 130 51 130
-108 75 c-60 41 -112 75 -117 75 -4 -1 -58 -32 -120 -71z"/>
<path d="M6228 10836 l-107 -72 127 -73 c109 -62 130 -71 149 -62 13 6 26 17
29 26 5 11 -82 257 -89 254 -1 0 -50 -33 -109 -73z"/>
<path d="M7650 10839 c0 -7 14 -57 31 -113 17 -56 33 -109 35 -118 4 -14 25
-1 107 63 56 45 106 85 111 90 6 5 5 24 -3 49 l-12 40 -134 0 c-94 0 -135 -3
-135 -11z"/>
<path d="M6972 7900 c-95 -68 -120 -156 -107 -372 l7 -128 173 0 174 0 7 45
c10 72 0 327 -15 353 -20 38 -82 102 -112 118 -43 22 -82 17 -127 -16z"/>
<path d="M6967 6977 c-45 -42 -83 -87 -92 -109 -11 -28 -15 -79 -15 -198 l0
-160 185 0 185 0 3 88 c3 135 -1 221 -14 259 -13 40 -59 94 -128 152 l-47 39
-77 -71z"/>
<path d="M3264 5076 c14 -57 135 -614 141 -651 13 -81 1 -75 154 -75 l138 0
60 220 59 221 22 -133 c12 -73 29 -172 38 -221 l17 -88 144 3 143 3 124 373
124 372 -114 0 c-80 0 -114 -3 -114 -12 0 -10 -132 -440 -147 -478 -6 -14 -44
200 -73 403 l-12 87 -129 0 c-125 0 -129 -1 -134 -22 -2 -13 -30 -129 -61
-258 l-57 -235 -43 210 c-24 116 -46 231 -50 258 l-7 47 -114 0 -115 0 6 -24z"/>
<path d="M4530 5008 c0 -86 -10 -288 -26 -550 l-7 -108 127 0 126 0 0 169 c0
163 15 497 25 554 l5 27 -125 0 -125 0 0 -92z"/>
<path d="M4916 5008 c-3 -51 -10 -190 -16 -308 -6 -118 -13 -245 -16 -282 l-7
-68 112 0 111 0 1 143 c1 78 4 184 8 236 l6 93 42 -78 c24 -44 82 -149 131
-234 l88 -155 140 -3 140 -3 17 348 c10 192 21 360 24 376 l5 27 -109 0 -110
0 -7 -232 c-7 -212 -12 -262 -22 -233 -3 6 -60 111 -128 235 l-124 225 -140 3
-140 3 -6 -93z"/>
<path d="M5836 5008 c-2 -51 -10 -205 -16 -343 -6 -137 -14 -265 -17 -284 l-6
-33 249 4 c283 6 320 13 403 78 37 30 59 58 88 117 38 77 38 77 38 203 0 122
-1 127 -33 192 -22 46 -46 76 -75 98 -73 54 -114 60 -383 60 l-242 0 -6 -92z
m440 -94 c44 -32 68 -89 68 -158 -1 -151 -62 -224 -205 -241 -104 -13 -101
-19 -94 173 3 92 8 187 11 210 l6 44 93 -4 c75 -2 99 -7 121 -24z"/>
<path d="M6715 5003 c-9 -139 -44 -549 -51 -605 l-7 -48 96 0 96 0 5 43 c3 23
8 96 11 162 9 201 18 296 25 288 6 -7 58 -220 103 -428 l14 -60 103 0 103 0
89 260 88 260 -5 -205 c-3 -113 -8 -231 -11 -262 l-6 -58 104 0 105 0 6 353
c4 193 9 362 13 375 l6 22 -159 0 -160 0 -16 -52 c-8 -29 -42 -131 -75 -226
l-60 -173 -11 53 c-6 29 -30 131 -53 226 l-41 172 -153 0 -152 0 -7 -97z"/>
<path d="M7740 4958 c0 -134 -11 -369 -26 -535 l-6 -73 126 0 126 0 0 118 c0
124 15 451 26 565 l6 67 -126 0 -126 0 0 -142z"/>
<path d="M8126 4918 c-7 -169 -16 -312 -32 -495 l-7 -73 290 0 291 0 6 23 c3
12 6 49 6 82 l0 60 -161 -3 c-89 -2 -166 1 -170 5 -5 5 -3 118 6 264 8 139 15
269 15 287 l0 32 -119 0 -118 0 -7 -182z"/>
<path d="M8786 4933 c-7 -163 -20 -363 -32 -510 l-7 -73 290 0 290 0 7 38 c3
20 6 57 6 82 l0 45 -165 -3 c-133 -3 -166 -1 -170 10 -3 8 1 129 10 269 8 140
15 266 15 282 l0 27 -119 0 -119 0 -6 -167z"/>
<path d="M9726 4928 c-7 -168 -19 -356 -32 -505 l-7 -73 290 0 291 0 6 31 c3
17 6 55 6 83 l0 51 -161 -3 c-89 -2 -166 1 -171 6 -5 5 -2 111 7 263 8 140 15
269 15 287 l0 32 -119 0 -118 0 -7 -172z"/>
<path d="M10386 4938 c-10 -240 -26 -518 -32 -555 l-5 -33 126 0 125 0 0 53
c1 79 18 500 26 605 l7 92 -120 0 -121 0 -6 -162z"/>
<path d="M6247 4130 c-66 -52 -29 -150 57 -150 39 0 76 43 76 89 0 70 -76 105
-133 61z"/>
<path d="M6749 4121 c-37 -38 -39 -82 -4 -116 50 -51 145 -11 145 61 0 78 -85
111 -141 55z"/>
<path d="M8145 4125 c-36 -35 -35 -96 1 -124 70 -55 168 18 134 99 -22 52 -95
66 -135 25z"/>
<path d="M3160 4059 l0 -31 468 3 467 4 47 -23 c67 -33 114 -90 197 -237 182
-322 347 -541 591 -786 254 -255 442 -390 755 -545 413 -204 833 -294 1368
-294 805 0 1458 240 2015 740 249 223 523 581 697 910 61 116 139 199 205 220
36 11 135 13 508 11 254 -2 462 1 462 6 0 4 -3 18 -6 31 l-6 22 -904 0 -904 0
0 -30 0 -31 98 7 c145 9 205 -5 264 -63 l47 -46 76 68 c42 37 78 66 80 63 2
-2 -10 -44 -26 -93 -91 -275 -285 -561 -560 -830 -311 -303 -621 -507 -1004
-658 -618 -244 -1252 -259 -1915 -45 -837 270 -1499 836 -1743 1488 -63 168
-62 168 48 60 l97 -95 -6 71 -6 71 178 7 c212 8 231 11 225 37 -5 19 -29 19
-909 19 l-904 0 0 -31z"/>
<path d="M9420 3885 c-57 -23 -111 -36 -165 -40 -591 -50 -1312 -186 -1908
-361 -315 -92 -294 -92 -542 -15 -429 132 -967 247 -1530 325 -214 30 -652 79
-665 74 -7 -2 76 -164 96 -187 2 -2 22 11 46 28 51 38 67 38 313 11 541 -62
1071 -164 1519 -295 216 -63 226 -67 226 -103 0 -29 -2 -30 -64 -41 -148 -26
-219 -31 -285 -20 -124 19 -685 128 -971 188 -537 112 -553 116 -667 171 -58
27 -107 50 -109 50 -5 0 241 -317 263 -340 8 -8 -1 22 -20 68 -21 48 -30 82
-24 82 7 -1 329 -63 717 -139 l705 -137 3 -47 c3 -52 17 -45 -128 -67 -159
-24 -257 -10 -894 130 -176 38 -321 69 -322 67 -3 -2 244 -223 315 -282 30
-25 25 -17 -27 50 -34 44 -58 81 -53 83 9 3 692 -138 700 -145 11 -9 -60 -67
-116 -95 -58 -28 -68 -30 -145 -26 -58 3 -110 14 -172 36 -49 18 -91 31 -92
29 -2 -1 63 -41 144 -89 81 -47 182 -107 225 -132 42 -25 77 -44 77 -42 0 2
-16 24 -36 48 l-37 43 129 62 c891 429 1852 721 2819 857 190 27 546 66 596
66 29 0 30 -1 24 -32 -5 -21 -4 -29 2 -23 14 15 153 215 153 220 0 8 -10 5
-100 -30z"/>
<path d="M9255 3580 c-22 -10 -74 -22 -115 -25 -113 -10 -403 -52 -595 -86
-733 -131 -1524 -377 -2169 -674 -172 -79 -267 -109 -385 -121 -39 -3 -71 -9
-71 -13 0 -3 68 -27 152 -53 133 -40 153 -44 166 -31 19 18 210 114 406 203
533 241 1121 431 1721 554 260 53 779 135 789 125 2 -2 -7 -31 -20 -63 -13
-33 -23 -61 -21 -62 3 -3 151 205 180 253 10 15 12 16 -38 -7z"/>
<path d="M8800 3229 c-642 -148 -748 -173 -955 -229 -272 -73 -394 -115 -800
-273 -464 -181 -486 -188 -598 -188 -50 0 -116 5 -146 11 -30 5 -56 8 -58 6
-7 -7 317 -98 433 -122 387 -78 855 -46 1259 87 150 50 407 175 545 267 133
88 234 167 200 157 -14 -4 -189 -61 -390 -125 -533 -173 -782 -251 -1011 -320
-179 -54 -214 -62 -289 -62 -82 0 -232 18 -258 31 -14 8 235 123 473 218 208
84 553 199 785 262 283 77 797 187 836 179 12 -2 3 -20 -36 -70 -28 -38 -48
-68 -46 -68 5 0 271 234 321 281 26 26 31 26 -265 -42z"/>
</g>
</svg>
