<?xml version="1.0" standalone="no"?>
<!DOCTYPE svg PUBLIC "-//W3C//DTD SVG 20010904//EN"
 "http://www.w3.org/TR/2001/REC-SVG-20010904/DTD/svg10.dtd">
<svg version="1.0" xmlns="http://www.w3.org/2000/svg"
 width="1400.000000pt" height="400.000000pt" viewBox="0 0 1400.000000 400.000000"
 preserveAspectRatio="xMidYMid meet">
<metadata>
Created by potrace 1.16, written by Peter Selinger 2001-2019
</metadata>
<g transform="translate(0.000000,400.000000) scale(0.100000,-0.100000)"
fill="#000000" stroke="none">
<path d="M7985 3928 c-92 -99 -378 -443 -503 -605 -56 -72 -106 -134 -111
-138 -5 -3 -31 61 -58 142 -26 81 -49 140 -51 131 -2 -10 13 -86 34 -170 35
-146 36 -153 20 -181 -16 -29 -16 -29 7 -23 22 5 25 1 42 -69 12 -47 15 -78
10 -84 -6 -4 -50 -22 -100 -39 -49 -17 -139 -49 -200 -71 -60 -22 -143 -52
-182 -67 -40 -15 -73 -31 -73 -35 0 -18 58 -8 210 35 197 55 210 58 210 49 0
-5 -16 -68 -35 -141 -37 -140 -119 -497 -130 -568 -9 -56 -37 -80 -103 -87
-30 -4 -104 -27 -165 -53 -62 -25 -124 -51 -138 -56 -23 -10 -37 -1 -194 125
-94 75 -172 133 -175 130 -3 -3 62 -70 143 -149 l148 -143 -108 -55 c-127 -65
-109 -72 38 -17 l104 39 22 -20 22 -21 -87 -56 c-48 -31 -111 -73 -139 -94
-28 -20 -57 -35 -65 -32 -8 3 -25 20 -38 37 -17 23 -252 188 -360 252 -63 38
185 -168 335 -279 50 -36 55 -43 55 -80 0 -75 1 -75 -131 -75 -73 0 -119 4
-119 10 0 6 -7 10 -15 10 -8 0 -15 -7 -15 -17 0 -29 -37 14 -44 51 -3 17 -39
90 -80 161 -40 72 -85 152 -99 180 -60 112 -21 10 69 -181 53 -113 95 -206 93
-207 -13 -9 -287 -90 -302 -89 -10 0 -20 -5 -23 -13 -9 -22 -31 -7 -58 38 -13
23 -75 92 -137 152 -69 68 -99 93 -78 65 44 -59 122 -153 181 -217 53 -58 56
-71 29 -140 -19 -50 -72 -280 -70 -311 0 -9 16 39 34 108 19 69 43 154 54 190
l20 65 -5 -200 c-3 -110 -7 -205 -9 -211 -2 -7 -36 -17 -75 -24 -57 -10 -77
-10 -95 0 -13 7 -31 10 -39 7 -8 -3 -18 -2 -21 2 -6 10 -45 3 -45 -8 0 -4 -42
-7 -92 -6 l-93 0 -2 188 c-2 160 -1 187 12 187 17 0 19 9 5 30 -5 9 -5 20 2
30 6 8 -1 3 -15 -12 -14 -16 -34 -28 -43 -28 -12 0 -14 -3 -6 -13 19 -23 23
-70 16 -223 l-7 -152 -66 -7 c-36 -4 -74 -14 -83 -22 -13 -12 -28 -14 -60 -8
-24 4 -88 9 -143 11 l-100 2 -3 162 c-3 189 -13 169 130 251 48 28 88 53 88
55 0 3 -49 -21 -110 -52 -60 -32 -110 -61 -110 -66 0 -18 -30 -6 -52 21 -13
16 -54 54 -93 83 -98 75 -110 81 -40 18 33 -30 84 -78 114 -108 l54 -54 -7
-157 c-4 -85 -12 -161 -17 -168 -6 -6 -24 -15 -40 -18 -16 -4 -29 -11 -29 -16
0 -5 -11 -9 -24 -9 -14 0 -28 -4 -31 -10 -3 -5 -17 -10 -30 -10 -13 0 -26 -4
-29 -9 -3 -4 -40 -14 -83 -20 -43 -7 -85 -16 -95 -21 -9 -5 -51 -12 -93 -15
l-78 -5 7 37 c3 21 6 106 6 188 1 134 2 148 15 131 20 -27 19 -11 -2 20 -13
21 -14 30 -5 45 7 10 12 22 12 26 0 5 -5 1 -10 -7 -7 -11 -12 -12 -21 -3 -8 8
-8 20 -1 45 6 18 13 58 16 88 4 44 1 37 -14 -34 -21 -93 -32 -116 -58 -116
-15 0 -142 -67 -142 -75 0 -2 37 14 82 35 45 22 88 40 96 40 13 0 14 -30 8
-207 -4 -115 -11 -212 -16 -217 -10 -10 -195 -13 -258 -3 -23 3 -52 13 -64 21
-24 17 -64 21 -72 7 -3 -4 -22 -11 -42 -14 -20 -3 -44 -13 -53 -21 -9 -8 -43
-16 -78 -19 l-63 -4 0 209 c0 132 4 208 10 208 6 0 10 8 9 18 0 16 -1 16 -12
0 -11 -16 -18 -11 -77 45 -61 58 -62 58 -12 7 33 -36 52 -64 52 -80 0 -20 2
-22 11 -10 8 11 9 -1 5 -45 -3 -33 -8 -124 -12 -202 -4 -93 -11 -144 -18 -145
-38 -5 -196 -8 -293 -5 -40 1 -73 0 -73 -3 0 -7 -149 -3 -218 5 -53 7 -53 7
-50 38 3 28 7 32 37 35 25 3 31 0 25 -10 -6 -10 -3 -9 10 1 9 8 15 20 12 28
-3 7 -1 13 4 13 6 0 10 -10 10 -22 0 -18 2 -20 10 -8 8 12 11 12 27 -2 10 -8
24 -13 31 -11 7 3 22 -3 33 -13 10 -9 22 -14 26 -11 3 4 1 7 -5 7 -7 0 -12 10
-12 22 l0 21 19 -21 c22 -26 31 -28 31 -7 0 8 -4 15 -10 15 -18 0 -11 18 9 23
13 3 18 1 14 -9 -4 -10 4 -12 34 -7 41 6 63 19 63 37 0 6 -7 3 -14 -7 -7 -9
-19 -17 -26 -17 -7 0 -2 9 11 19 28 22 42 18 34 -10 -5 -15 -3 -17 12 -12 15
6 16 5 3 -9 -11 -11 -17 -12 -22 -4 -4 6 -8 7 -8 1 0 -5 4 -14 8 -20 10 -13
35 -18 27 -5 -9 14 17 38 35 32 13 -5 13 -3 1 11 -7 9 -18 14 -24 10 -6 -4 -7
-1 -3 6 5 7 15 10 24 6 9 -3 13 -2 8 2 -8 8 -33 12 -93 16 -18 1 -33 6 -33 12
0 5 -5 3 -10 -5 -7 -11 -12 -12 -21 -3 -8 8 -18 9 -31 2 -12 -6 -18 -6 -18 1
0 5 -7 10 -15 10 -8 0 -15 -5 -15 -11 0 -6 -9 -8 -22 -3 -13 4 -33 7 -45 6
-13 -1 -23 4 -23 11 0 9 -3 8 -9 -1 -10 -17 -22 -17 -32 -1 -6 10 -12 9 -28
-5 -19 -17 -20 -17 -31 21 -6 21 -10 76 -8 123 l3 85 58 18 c32 11 57 21 54
23 -2 3 -16 0 -30 -5 -14 -5 -43 -12 -65 -16 -36 -5 -42 -3 -53 17 -12 23 -76
88 -86 88 -2 0 18 -25 46 -57 39 -44 52 -66 57 -102 9 -61 -10 -192 -30 -206
-9 -7 -12 -16 -8 -20 4 -5 1 -4 -7 0 -11 6 -13 4 -7 -11 6 -15 5 -16 -5 -7 -8
8 -9 16 -2 25 5 7 7 24 3 38 -6 24 -7 23 -19 -13 -14 -41 -17 -43 -45 -22 -26
20 -106 19 -156 -1 -22 -9 -47 -14 -55 -11 -8 4 -17 2 -20 -4 -4 -5 -11 -7
-16 -4 -5 4 -16 0 -23 -8 -8 -8 -33 -17 -55 -21 -32 -5 -41 -11 -41 -26 0 -14
-7 -20 -22 -20 -12 0 -29 -7 -38 -15 -15 -13 -21 -14 -50 -1 -24 10 -42 11
-67 4 -28 -8 -37 -6 -47 7 -11 15 -15 15 -58 -4 -25 -11 -49 -17 -52 -13 -9 9
-46 10 -46 1 0 -9 -58 -5 -83 6 -10 4 -29 3 -43 -4 -27 -12 -186 -17 -204 -6
-6 4 -17 1 -25 -5 -11 -9 -21 -7 -44 9 -25 18 -30 19 -35 5 -3 -9 -11 -12 -18
-8 -9 6 -243 10 -243 4 0 -1 -429 -2 -435 0 -3 1 -48 1 -100 1 -52 0 -103 0
-112 0 -87 1 -172 -7 -219 -19 -21 -5 -43 -6 -50 -1 -8 5 -31 9 -51 9 -20 0
-40 4 -43 10 -4 6 -14 5 -28 -3 -12 -7 -35 -13 -52 -12 -16 0 -33 -4 -38 -10
-4 -6 -13 -3 -22 9 -8 11 -15 15 -15 8 0 -14 -42 -12 -52 3 -4 6 -8 -11 -8
-37 l0 -48 68 0 c37 0 180 -3 317 -6 138 -3 369 -7 515 -9 1362 -20 1710 -23
1710 -12 0 5 5 5 12 1 18 -12 80 -16 74 -5 -4 6 5 6 26 0 17 -5 34 -5 37 -1 7
10 27 9 37 -1 4 -4 14 -7 23 -7 14 0 14 2 1 10 -13 8 -12 10 3 10 9 0 17 -5
17 -10 0 -14 70 -10 89 4 11 8 13 8 8 0 -4 -7 5 -11 23 -12 17 0 30 4 30 10 0
7 5 6 14 -1 10 -8 16 -9 21 -2 3 6 40 11 83 10 42 0 90 2 105 5 20 3 27 1 24
-8 -3 -8 13 -12 57 -13 33 -1 80 -4 104 -7 24 -3 40 -1 37 4 -3 5 14 8 39 6
25 -2 48 -1 50 2 3 2 45 6 94 7 49 1 94 5 101 10 7 4 40 8 74 10 66 2 110 9
192 30 47 12 102 12 132 0 7 -2 15 0 18 5 9 15 25 12 19 -3 -3 -9 2 -13 18
-11 13 1 29 3 36 3 6 1 12 7 12 15 0 10 15 15 50 18 58 4 70 1 70 -16 0 -12
149 -13 179 0 9 3 39 6 68 6 42 0 50 3 46 15 -4 11 -1 14 8 11 8 -3 19 2 26
11 8 11 12 12 13 4 0 -20 20 -15 21 5 1 11 4 9 9 -8 4 -14 8 -20 9 -15 2 17
71 15 71 -1 0 -8 -7 -14 -15 -14 -8 0 -15 -4 -15 -9 0 -4 15 -6 33 -4 17 2 57
5 87 6 30 1 58 6 61 11 11 14 42 -2 33 -16 -5 -7 3 -5 18 4 22 14 27 15 32 3
3 -9 14 -12 30 -9 14 2 27 0 30 -5 3 -4 17 -7 32 -5 27 3 56 32 47 48 -4 5 -1
6 5 2 7 -4 12 -1 12 6 0 7 12 0 27 -17 29 -33 32 -33 208 -20 44 4 83 5 87 3
4 -2 13 6 21 16 9 12 19 16 27 11 9 -5 11 -4 6 3 -4 7 -2 20 3 29 9 16 10 16
11 -4 0 -16 6 -23 19 -23 11 0 26 -3 34 -6 9 -3 17 3 22 18 l8 23 4 -25 c9
-57 14 -70 28 -70 7 0 17 9 20 20 7 21 25 28 25 9 0 -5 4 -8 9 -5 5 4 11 1 13
-5 2 -5 11 -7 21 -3 14 5 15 9 6 20 -15 18 -4 45 15 38 8 -3 12 -12 9 -20 -5
-13 8 -19 31 -15 5 1 4 -4 -2 -11 -9 -11 0 -13 46 -11 31 2 65 5 75 7 9 2 17
0 17 -5 0 -5 -4 -9 -10 -9 -5 0 -10 -5 -10 -11 0 -7 10 -9 25 -7 14 3 28 1 31
-3 3 -5 10 -9 15 -9 6 0 7 5 4 10 -9 15 4 12 21 -5 17 -16 63 -11 76 9 5 7 8
7 8 -2 0 -9 7 -11 22 -6 12 4 61 7 108 7 47 0 91 4 97 9 9 7 15 5 19 -6 3 -9
10 -14 14 -11 22 13 194 21 248 11 17 -3 32 -1 32 4 0 11 43 9 51 -3 11 -16
59 -15 68 2 9 14 21 17 119 22 12 1 22 8 22 15 0 8 5 14 10 14 6 0 10 -6 10
-13 0 -14 23 -15 54 -2 13 6 26 0 48 -24 34 -36 69 -40 89 -10 12 16 25 20 77
21 56 1 63 4 59 20 -5 19 -5 19 128 21 109 1 113 0 117 -35 3 -37 19 -44 74
-33 26 4 34 11 34 28 0 42 9 46 110 52 36 2 76 7 90 10 14 4 52 6 85 7 33 0
68 4 79 10 13 7 16 7 12 -1 -4 -6 0 -11 8 -11 9 0 16 -7 16 -15 0 -18 27 -20
33 -2 8 23 15 2 20 -65 3 -37 9 -72 12 -78 4 -6 -6 -10 -24 -10 -17 0 -31 -4
-31 -8 0 -4 79 -7 175 -6 96 1 175 -1 175 -5 0 -11 -188 -20 -325 -17 -71 2
-124 -2 -150 -10 -49 -17 -98 -19 -75 -4 12 8 11 10 -7 10 -14 0 -21 -5 -18
-12 4 -9 -9 -13 -45 -13 -27 0 -50 3 -50 7 0 5 -7 8 -15 8 -8 0 -15 -4 -15 -9
0 -5 -7 -12 -16 -15 -13 -5 -14 -3 -6 6 9 11 -7 13 -81 12 -51 -1 -105 -6
-122 -11 -29 -9 -87 -8 -112 2 -7 2 -10 11 -7 20 4 10 -2 24 -14 36 -27 25
-29 24 -30 -11 -1 -43 -8 -50 -53 -50 l-40 0 7 35 c5 31 4 35 -15 35 -22 0
-38 -37 -27 -65 4 -11 -1 -15 -19 -15 -14 0 -25 7 -28 18 -4 16 -5 16 -6 0 -1
-21 -17 -24 -24 -5 -4 9 -8 9 -15 -2 -5 -7 -14 -11 -19 -8 -6 4 -66 -1 -134
-9 -166 -20 -301 -31 -564 -43 -121 -6 -267 -15 -325 -21 -178 -16 -353 -26
-605 -35 -44 -1 -141 -7 -215 -13 -74 -7 -205 -14 -290 -17 -85 -2 -166 -7
-180 -10 -61 -12 -80 -15 -160 -20 -47 -3 -143 -12 -215 -20 -133 -14 -204
-21 -335 -31 -41 -3 -97 -8 -125 -10 -27 -2 -66 -6 -85 -8 -19 -3 -59 -5 -88
-5 -29 -1 -51 -4 -48 -9 2 -4 -13 -6 -35 -4 -21 2 -39 0 -39 -4 0 -5 -24 -9
-52 -9 -99 -1 -253 -16 -256 -26 -2 -5 -11 -9 -20 -9 -15 0 -15 2 -2 10 13 8
13 10 -2 10 -9 0 -18 -5 -20 -10 -4 -12 -53 -21 -130 -22 -32 0 -55 -4 -52 -9
3 -5 -1 -9 -8 -9 -7 -1 -35 -4 -63 -7 -27 -4 -71 -7 -97 -7 -28 -1 -48 -5 -48
-12 0 -7 -27 -12 -72 -13 -78 -2 -200 -9 -313 -16 -38 -3 -126 -7 -195 -10
-69 -3 -206 -13 -305 -21 -99 -9 -207 -18 -240 -20 -33 -3 -89 -8 -125 -13
-36 -5 2711 -9 6158 -10 l6222 -1 -1 1278 c-1 702 -5 1291 -9 1307 -6 22 -8
25 -9 9 -1 -19 -6 -21 -38 -17 -33 5 -35 4 -21 -10 8 -8 23 -15 33 -14 10 1
20 -3 22 -10 3 -7 -3 -9 -16 -6 -16 4 -21 1 -21 -15 0 -15 -8 -21 -35 -24 -22
-2 -40 1 -47 9 -5 7 -14 10 -19 7 -12 -7 -11 3 1 27 6 10 7 19 3 20 -4 0 -16
2 -26 4 -9 2 -32 -4 -50 -13 -39 -20 -67 -25 -67 -12 0 5 -7 7 -16 3 -8 -3
-13 -12 -10 -19 3 -8 0 -11 -10 -7 -7 3 -14 10 -14 17 0 6 -4 5 -9 -3 -5 -7
-22 -15 -37 -17 -16 -1 -30 -8 -32 -13 -2 -6 -8 -9 -13 -5 -8 5 -13 -9 -10
-28 0 -4 -7 -4 -17 -1 -31 11 -34 15 -21 24 11 7 11 9 -2 9 -9 0 -22 -7 -29
-15 -9 -10 -16 -12 -25 -5 -9 7 -11 1 -10 -25 0 -22 -3 -31 -10 -26 -5 5 -20
7 -31 5 -12 -2 -27 3 -34 11 -7 8 -18 15 -24 15 -6 0 -29 10 -51 21 -75 41
-182 62 -240 49 -22 -5 -48 -5 -62 1 -54 20 -195 14 -278 -14 -39 -12 -92 -20
-150 -21 -85 -2 -200 -21 -218 -36 -4 -4 -27 -3 -50 2 -54 11 -127 16 -127 9
0 -9 -102 -55 -125 -57 -23 -1 -51 -11 -80 -26 -114 -63 -148 -79 -161 -74
-12 5 -14 121 -14 846 l0 840 -323 0 -324 0 -6 -197 c-4 -108 -7 -513 -7 -900
0 -616 -2 -704 -15 -709 -8 -4 -15 -14 -15 -23 -1 -14 -2 -14 -14 2 -7 9 -18
17 -25 17 -6 0 -11 5 -11 10 0 6 -7 10 -15 10 -8 0 -15 -5 -15 -11 0 -5 -4 -7
-10 -4 -5 3 -10 2 -10 -4 0 -5 -9 -9 -19 -8 -12 1 -17 7 -14 17 3 10 0 9 -11
-4 -9 -11 -16 -14 -16 -8 0 18 -41 14 -57 -5 -8 -10 -11 -12 -7 -4 6 11 1 12
-22 6 -16 -4 -33 -8 -39 -9 -5 -1 -16 -6 -24 -10 -9 -6 -12 -5 -7 2 8 13 -34
13 -51 -1 -9 -6 -13 -6 -13 2 0 6 -5 11 -11 11 -5 0 -8 -4 -5 -9 9 -14 -24
-22 -45 -11 -10 6 -19 7 -19 3 0 -4 -5 -2 -12 5 -7 7 -17 8 -30 1 -11 -6 -18
-6 -18 0 0 5 -9 8 -20 6 -11 -2 -20 0 -20 6 0 5 -22 9 -50 9 -27 0 -50 -4 -50
-9 0 -5 -9 -7 -20 -4 -12 3 -20 0 -20 -7 0 -9 -6 -7 -20 5 -10 9 -26 15 -35
12 -8 -4 -15 -2 -15 4 0 6 -9 8 -21 4 -25 -8 -49 -13 -67 -14 -10 -1 -7 -9 7
-30 17 -24 18 -30 6 -35 -8 -3 -17 0 -21 6 -5 7 -2 8 6 3 8 -5 11 -3 8 6 -3 8
-13 13 -23 11 -10 -2 -22 2 -26 10 -7 11 -9 11 -9 0 0 -7 -6 -20 -14 -28 -13
-12 -15 -12 -18 3 -2 13 -8 8 -20 -17 -10 -20 -18 -28 -18 -17 0 21 -7 22 -26
3 -8 -8 -10 -16 -4 -18 6 -2 1 -11 -11 -21 -20 -18 -21 -18 -14 5 l7 23 -17
-23 c-13 -18 -20 -20 -30 -12 -16 13 -39 4 -29 -11 3 -6 -4 -7 -20 -3 -22 5
-26 3 -26 -14 0 -12 -5 -24 -12 -28 -6 -4 -8 -3 -5 2 10 17 -7 32 -28 23 -18
-7 -18 -8 -2 -8 14 -1 17 -6 12 -22 -5 -15 -4 -19 4 -15 6 4 20 1 32 -7 12 -9
16 -18 10 -21 -5 -4 -8 -13 -4 -21 8 -23 -6 -65 -22 -65 -9 0 -15 9 -15 23 0
18 2 19 10 7 10 -16 11 -15 15 15 2 19 -14 42 -32 48 -5 1 -8 12 -7 25 0 12
-5 22 -12 22 -7 0 -15 6 -17 13 -4 8 -6 8 -6 0 -1 -6 -10 -9 -20 -6 -17 4 -20
0 -19 -36 0 -29 5 -41 15 -41 8 0 11 5 7 12 -4 7 -3 8 4 4 16 -10 2 -38 -16
-31 -13 5 -13 3 -1 -12 8 -9 9 -14 2 -10 -7 4 -14 -1 -18 -13 -3 -11 -10 -20
-14 -20 -4 0 -8 -6 -8 -13 0 -18 25 -39 32 -28 3 5 1 12 -4 16 -14 8 -2 35 15
35 8 0 14 -7 14 -16 0 -8 -4 -12 -10 -9 -6 4 -7 -6 -3 -27 7 -40 13 -49 13
-20 0 29 11 53 21 46 5 -3 9 -1 9 5 0 5 -6 11 -12 14 -9 3 -7 9 7 20 11 8 22
13 25 10 3 -3 -1 -8 -8 -10 -18 -7 15 -43 39 -43 13 0 20 13 29 55 6 30 14 55
17 55 2 0 2 -13 -2 -29 -3 -16 -2 -32 4 -35 10 -7 24 10 27 32 2 8 6 17 10 20
4 4 4 -1 1 -10 -3 -9 1 -22 9 -28 21 -19 18 -49 -6 -47 -11 1 -20 6 -20 11 0
5 -3 6 -6 3 -9 -9 16 -38 26 -32 4 3 11 -3 14 -12 5 -13 11 -10 31 17 14 19
25 39 25 44 0 6 -8 -1 -18 -16 -9 -16 -21 -28 -26 -28 -4 0 -3 6 3 14 6 7 9
22 5 32 -5 16 -4 16 5 4 9 -13 11 -13 11 3 0 11 -6 17 -16 15 -10 -2 -19 3
-22 11 -3 10 2 11 19 6 18 -5 20 -4 9 4 -8 5 -12 13 -8 16 4 4 14 -5 23 -19
10 -14 24 -26 32 -26 11 0 11 -4 3 -20 -8 -14 -8 -26 0 -41 7 -11 9 -23 6 -27
-3 -3 -6 1 -6 8 0 10 -3 11 -11 3 -8 -8 -6 -17 10 -34 l21 -23 1 30 c0 27 1
28 9 7 13 -33 30 -28 30 8 0 17 -4 28 -10 24 -6 -4 -7 1 -4 12 5 17 5 17 -9 0
-15 -18 -15 -18 -22 3 -4 13 0 31 9 45 19 28 22 30 24 13 2 -24 27 -103 33
-108 4 -3 9 -14 12 -25 3 -12 5 -3 6 20 2 37 3 38 12 15 6 -13 15 -28 22 -33
8 -6 6 -7 -5 -4 -9 3 -18 1 -20 -5 -2 -6 -12 -12 -21 -14 -9 -1 -15 2 -12 7 4
5 0 6 -7 4 -17 -7 -21 -45 -4 -45 6 0 17 5 23 11 7 7 9 3 6 -15 l-5 -25 -34
22 c-18 12 -35 29 -36 37 -3 12 -5 11 -11 -3 -5 -14 -2 -20 13 -24 23 -6 27
-23 5 -23 -8 0 -15 -4 -15 -10 0 -5 -7 -10 -15 -10 -8 0 -15 -5 -15 -11 0 -5
5 -7 12 -3 8 5 9 2 5 -10 -4 -10 -3 -15 3 -11 6 3 10 12 10 20 0 8 5 17 10 20
6 4 10 3 9 -2 -4 -23 3 -33 24 -32 l22 0 -22 9 c-14 6 -21 15 -17 24 5 12 10
13 32 3 20 -9 26 -9 30 1 2 6 10 12 18 12 8 0 14 5 14 11 0 5 -4 7 -10 4 -5
-3 -10 -1 -10 4 0 16 16 13 31 -5 10 -12 10 -17 0 -23 -7 -5 -12 -11 -12 -15
3 -18 0 -20 -9 -6 -8 13 -10 13 -10 -1 0 -9 -7 -19 -15 -23 -18 -6 -9 -36 11
-36 8 0 11 6 8 15 -4 8 -1 15 5 15 6 0 11 -5 11 -12 0 -6 8 -3 20 7 18 16 20
16 26 1 3 -9 3 -23 0 -32 -4 -9 -2 -13 5 -8 7 4 9 -1 5 -17 -3 -13 -3 -18 0
-11 3 6 11 12 18 12 16 0 46 32 46 49 0 7 -5 9 -12 5 -7 -4 -8 -3 -4 4 4 7 9
21 11 31 3 14 -1 18 -11 14 -9 -3 -13 -13 -10 -22 5 -12 3 -12 -8 3 -17 21
-38 13 -29 -11 4 -11 3 -14 -6 -9 -7 5 -10 14 -7 21 3 8 2 15 -2 17 -5 2 1 12
12 22 15 15 18 16 13 4 -3 -9 0 -19 8 -22 7 -2 16 2 19 10 10 25 34 15 38 -15
2 -17 1 -28 -4 -25 -4 3 -8 1 -8 -5 0 -18 20 -23 26 -7 3 9 10 16 14 16 5 0 2
-14 -7 -30 -8 -17 -19 -28 -23 -25 -5 3 -12 -7 -15 -22 -3 -15 -10 -45 -15
-67 -6 -28 -6 -36 3 -27 16 16 27 14 28 -6 0 -10 3 -13 5 -6 4 9 12 9 32 0 37
-16 38 -17 22 -28 -13 -9 -12 -10 2 -5 10 3 20 1 23 -4 3 -5 12 -7 20 -3 8 3
15 0 15 -6 0 -7 -7 -14 -15 -17 -12 -5 -12 -8 0 -20 19 -19 20 -18 20 19 -1
17 3 35 8 38 4 3 1 12 -8 19 -12 10 -15 10 -15 -4 0 -21 -26 -21 -34 0 -9 22
-8 23 17 17 13 -3 17 -1 11 4 -9 6 -7 12 4 23 14 13 15 12 9 -2 -3 -9 1 -22 9
-28 18 -16 47 6 41 31 -3 10 6 26 21 39 20 18 24 19 19 5 -4 -9 -7 -21 -7 -26
0 -6 -4 -7 -10 -4 -6 4 -10 -5 -10 -19 0 -32 17 -34 22 -3 2 12 9 23 16 23 6
1 14 2 17 3 2 0 0 12 -5 26 -12 30 -5 33 10 4 9 -17 8 -25 -7 -41 -18 -21 -18
-21 4 -16 13 4 26 1 30 -4 3 -6 2 -8 -3 -5 -6 3 -16 1 -24 -4 -13 -8 -13 -10
0 -18 9 -6 17 -6 21 0 8 14 39 0 40 -20 3 -40 -25 -81 -49 -73 -7 2 -12 -2
-12 -8 0 -7 -7 -10 -15 -7 -8 4 -17 2 -20 -3 -9 -15 19 -17 51 -4 27 11 34 11
50 -2 18 -15 18 -15 -3 -11 -18 4 -23 0 -24 -16 -1 -19 -2 -19 -6 -4 -4 14
-11 17 -26 13 -12 -3 -25 -6 -29 -6 -13 0 -9 -18 5 -23 6 -2 4 -3 -7 -1 -29 4
-61 -15 -75 -46 -13 -31 -31 -35 -43 -10 -4 10 -7 4 -8 -15 -1 -16 -4 -24 -7
-17 -5 14 -39 16 -47 3 -3 -4 -21 -7 -41 -4 -26 3 -35 0 -35 -12 0 -8 5 -15
10 -15 16 0 12 -27 -5 -34 -9 -3 -15 -1 -14 7 3 23 -1 37 -11 37 -5 0 -10 -8
-10 -17 0 -14 -2 -15 -9 -4 -7 10 -12 7 -23 -15 -11 -24 -20 -29 -48 -29 -19
-1 -43 -5 -53 -9 -9 -5 -33 -5 -52 -2 -27 5 -35 4 -35 -8 0 -10 -6 -13 -15
-10 -17 7 -96 -22 -107 -39 -6 -9 -10 -9 -16 0 -4 7 -16 10 -27 8 -11 -2 -28
-4 -37 -4 -10 -1 -18 -8 -18 -16 0 -18 -12 -19 -28 -3 -8 8 -18 9 -34 1 -13
-6 -36 -11 -53 -12 -16 -1 -33 -8 -38 -16 -11 -21 -171 -20 -188 1 -16 19 -35
17 -51 -4 -15 -21 -48 -36 -48 -22 0 8 -24 11 -89 10 -13 0 -29 4 -35 9 -18
14 -87 20 -144 12 -29 -4 -55 -4 -58 1 -3 4 -14 8 -26 8 l-20 0 7 837 c6 759
-3 1659 -21 2011 l-6 112 -83 0 -82 0 -7 -132 c-3 -73 -10 -248 -16 -388 -6
-140 -15 -347 -20 -460 -5 -113 -11 -313 -12 -445 -1 -132 -3 -262 -6 -288
l-4 -49 -30 36 c-151 183 -548 718 -548 739 0 9 18 19 46 27 25 7 48 19 50 25
3 7 -4 39 -15 71 -19 58 -20 59 -60 62 -41 3 -41 3 -41 -32 0 -25 -4 -36 -15
-36 -25 0 -18 45 19 118 48 95 72 181 112 392 19 102 42 224 52 273 l18 87
-32 0 c-32 0 -33 -1 -58 -82 -37 -125 -140 -508 -171 -636 -14 -63 -31 -125
-37 -138 -20 -43 -55 -56 -167 -65 -118 -8 -215 -31 -370 -84 -58 -20 -110
-34 -116 -31 -6 2 -21 38 -34 79 l-24 76 38 43 c133 150 293 317 573 601 l235
237 -91 0 -90 0 -67 -72z m146 -924 c17 -21 -9 -694 -27 -694 -11 0 -65 14
-341 86 -60 16 -62 18 -74 60 -12 38 -17 44 -41 44 -21 0 -29 -6 -34 -25 -3
-14 -12 -25 -18 -25 -21 0 -36 46 -46 138 -10 94 -14 112 -53 214 -14 37 -23
70 -18 72 4 3 106 30 227 60 120 31 250 64 288 74 75 19 119 18 137 -4z m-711
-196 c24 -92 73 -264 86 -302 25 -71 12 -100 -95 -207 -53 -53 -121 -130 -151
-172 -55 -77 -70 -90 -70 -62 0 9 -9 15 -25 15 -18 0 -25 -5 -25 -20 0 -11 -7
-20 -15 -20 -20 0 -19 11 9 89 13 36 29 100 35 141 6 41 20 138 32 215 20 136
56 326 64 333 5 5 106 30 127 31 12 1 20 -11 28 -41z m944 -143 c40 -49 308
-359 402 -463 l47 -54 -6 -386 c-4 -213 -7 -462 -7 -554 l0 -168 -32 0 c-18 0
-44 0 -58 0 -38 -1 -74 4 -85 12 -6 4 -17 3 -25 -3 -8 -5 -28 -9 -43 -9 -16 0
-38 -6 -50 -12 -31 -18 -130 -37 -142 -28 -17 13 -74 20 -80 10 -3 -6 -14 -10
-23 -10 -16 0 -17 44 -17 610 0 603 0 610 20 610 11 0 56 -7 100 -15 44 -8 91
-14 105 -14 40 0 -39 33 -141 59 l-86 22 -6 181 c-4 99 -7 230 -7 291 l0 111
47 -70 c25 -39 65 -92 87 -120z m-558 -359 c32 -8 112 -24 177 -35 65 -10 121
-21 124 -24 2 -3 0 -112 -6 -244 -8 -186 -20 -776 -21 -1045 0 -27 -4 -38 -15
-38 -8 0 -15 4 -15 9 0 14 -32 22 -45 11 -14 -11 -58 1 -70 19 -9 16 -25 13
-25 -4 0 -11 -13 -15 -53 -15 -29 0 -57 4 -63 10 -6 6 -21 6 -42 0 -18 -5 -39
-7 -46 -4 -7 3 -25 0 -39 -5 l-27 -10 1 462 c1 254 -2 581 -6 725 l-8 264 60
-30 c33 -17 86 -37 119 -46z m-239 -28 c-4 -51 -12 -205 -18 -343 -6 -137 -14
-291 -17 -342 l-7 -92 -60 72 c-62 74 -272 334 -281 348 -2 4 66 93 152 196
176 211 214 253 227 253 6 0 7 -36 4 -92z m-517 -318 c-14 -11 -28 -20 -32
-20 -8 0 -153 -84 -222 -128 -28 -18 -54 -32 -58 -32 -20 0 -4 21 37 51 60 43
50 49 -17 11 -53 -30 -54 -31 -66 -11 -10 15 -10 20 0 24 7 2 90 31 183 64
184 65 215 72 175 41z m40 -41 c0 -11 -47 -91 -105 -177 -140 -208 -126 -222
26 -27 40 52 74 93 75 92 1 -1 -4 -117 -12 -257 -7 -140 -13 -341 -14 -446 0
-105 -3 -206 -6 -223 -7 -33 -5 -32 -81 -17 -13 3 -23 1 -23 -3 0 -5 -20 -8
-45 -7 -33 0 -44 4 -41 13 8 19 -5 16 -20 -4 -12 -17 -13 -17 -19 0 -4 9 -12
17 -19 17 -8 0 -11 113 -12 425 l0 424 25 3 c19 2 26 9 26 26 0 14 11 29 30
41 17 10 68 46 115 79 47 34 88 62 93 62 4 0 7 -9 7 -21z m125 -124 c28 -33
110 -121 183 -195 l133 -135 -5 -179 c-3 -99 -6 -217 -6 -264 l0 -84 -35 6
c-26 5 -40 3 -51 -9 -14 -14 -18 -14 -45 2 -22 13 -31 15 -41 5 -7 -7 -28 -12
-47 -12 -20 0 -59 -6 -88 -14 -28 -8 -54 -11 -57 -8 -3 3 -6 221 -6 486 0 264
4 476 8 471 4 -6 30 -37 57 -70z m-511 -41 c10 -25 7 -74 -8 -149 -23 -108
-58 -569 -43 -555 3 3 15 91 26 195 25 219 68 489 70 430 0 -22 -4 -122 -9
-223 -5 -100 -10 -249 -11 -330 -1 -81 -4 -171 -7 -199 l-4 -52 -31 13 c-21 8
-42 10 -62 4 -16 -4 -43 -5 -60 -2 -16 4 -46 6 -65 6 -72 -3 -68 -20 -69 277
l-1 269 38 10 37 10 -37 1 -38 1 0 49 c0 44 3 50 23 53 15 2 22 10 22 24 0 14
32 45 105 102 58 44 108 81 111 81 4 1 10 -6 13 -15z m-699 -380 c-45 -68
-193 -384 -180 -384 3 0 23 37 46 83 62 124 180 336 190 343 6 3 7 -32 3 -88
-3 -51 -9 -172 -12 -268 -7 -166 -8 -175 -27 -176 -11 0 -37 -4 -57 -9 -21 -4
-46 -4 -55 0 -10 4 -36 9 -58 10 -22 2 -51 5 -65 9 -13 3 -27 1 -30 -4 -3 -5
-16 -7 -28 -3 -22 5 -22 7 -22 224 0 188 2 219 15 219 8 0 15 5 15 10 0 6 6
10 13 10 7 0 73 24 147 54 154 62 164 59 105 -30z m341 -126 c-6 -210 6 -222
18 -18 13 207 25 233 19 40 -3 -96 -7 -191 -8 -210 -2 -19 -4 -59 -4 -88 -1
-67 -6 -70 -165 -91 -113 -14 -106 -32 -106 282 l0 268 43 -5 c33 -5 136 2
200 13 5 0 6 -86 3 -191z m2939 -529 c-4 -5 1 -9 10 -9 9 0 13 5 10 11 -5 7 8
9 41 4 98 -12 132 -12 127 1 -3 8 3 11 14 9 10 -2 21 -4 26 -4 4 -1 7 -6 7
-12 0 -5 -4 -7 -10 -4 -5 3 -10 1 -10 -4 0 -14 6 -14 31 -1 15 9 19 7 19 -7 0
-13 3 -14 12 -5 7 7 20 12 31 12 12 0 16 4 11 13 -5 8 -2 8 9 -2 9 -7 17 -10
17 -5 0 4 5 3 12 -4 9 -9 16 -8 32 6 11 9 16 11 12 5 -7 -13 -5 -14 79 -17 30
-1 39 -5 37 -16 -1 -9 5 -6 17 8 12 13 22 18 26 12 3 -6 10 -8 15 -5 5 3 11 1
15 -5 4 -6 11 -8 16 -5 5 4 9 1 9 -5 0 -9 16 -9 60 2 8 1 14 -2 15 -9 0 -6 4
-15 9 -20 5 -5 6 -3 2 5 -4 7 -1 12 8 12 9 0 16 -5 16 -10 0 -6 15 -8 40 -4
33 6 40 4 40 -10 0 -16 1 -16 16 -1 9 9 19 13 22 10 4 -3 1 -9 -5 -13 -8 -5
-8 -12 2 -25 8 -12 15 -14 20 -8 3 6 2 11 -4 11 -6 0 -8 7 -4 16 5 13 7 13 14
2 7 -10 9 -10 9 0 0 7 13 12 30 12 17 0 30 -5 30 -12 0 -9 4 -8 10 2 8 12 13
13 30 3 26 -17 35 -16 21 0 -8 11 -7 14 7 14 9 0 21 -5 25 -11 6 -8 10 -7 14
2 4 10 8 10 21 0 9 -8 13 -8 9 -2 -5 8 6 13 33 16 22 2 40 -1 40 -6 0 -6 5 -5
12 2 7 7 23 11 38 11 24 -1 23 -2 -5 -9 -22 -6 -25 -8 -10 -10 11 -1 27 -1 35
0 8 1 12 -1 8 -6 -4 -4 -3 -13 3 -21 9 -10 8 -13 -2 -13 -10 0 -10 -3 -2 -11
9 -9 16 -8 28 4 9 9 23 13 32 10 11 -4 14 -3 9 5 -4 7 -2 12 4 12 16 0 30 -44
16 -51 -6 -4 -34 -9 -63 -12 -48 -5 -54 -4 -71 20 -21 28 -42 24 -42 -8 0 -10
-6 -19 -12 -20 -7 0 -69 -2 -138 -4 -69 -2 -235 -6 -370 -10 -466 -12 -783
-14 -802 -4 -10 5 -18 18 -18 28 0 10 -3 21 -7 25 -10 10 -11 86 -1 86 4 0 8
6 8 13 0 9 12 14 31 15 17 0 44 4 60 7 18 4 36 2 44 -5 18 -15 69 -4 59 12 -4
7 -3 8 5 4 6 -4 9 -12 6 -17z m-517 -5 l32 -6 0 -87 0 -87 -137 -2 c-75 -2
-141 -6 -146 -9 -5 -3 -12 -1 -16 5 -3 6 -60 12 -131 14 l-125 4 -3 85 c-1 51
1 79 7 70 10 -16 71 -22 88 -8 7 5 24 7 38 5 14 -3 25 -2 25 1 0 4 26 7 59 7
42 -1 57 -4 54 -13 -5 -13 19 -18 30 -7 13 14 88 10 96 -4 6 -10 10 -5 14 18
7 30 9 32 44 26 21 -3 53 -8 71 -12z"/>
<path d="M9981 3996 c9 -10 486 -201 522 -210 25 -6 27 -5 18 12 -16 30 -66
63 -204 135 l-127 67 -107 0 c-58 0 -104 -2 -102 -4z"/>
</g>
</svg>
