<?xml version="1.0" standalone="no"?>
<!DOCTYPE svg PUBLIC "-//W3C//DTD SVG 20010904//EN"
 "http://www.w3.org/TR/2001/REC-SVG-20010904/DTD/svg10.dtd">
<svg version="1.0" xmlns="http://www.w3.org/2000/svg"
 width="1400.000000pt" height="400.000000pt" viewBox="0 0 1400.000000 400.000000"
 preserveAspectRatio="xMidYMid meet">
<metadata>
Created by potrace 1.16, written by Peter Selinger 2001-2019
</metadata>
<g transform="translate(0.000000,400.000000) scale(0.100000,-0.100000)"
fill="#000000" stroke="none">
<path d="M9391 3968 c14 -49 13 -49 -51 -42 -35 4 -65 3 -72 -3 -21 -17 -90
-24 -106 -11 -9 8 -16 8 -20 1 -4 -5 -23 -13 -43 -17 -51 -9 -61 -24 -48 -72
6 -21 16 -42 23 -46 6 -4 47 -8 92 -8 l81 0 6 -97 c4 -54 7 -631 7 -1283 1
-1242 8 -1636 30 -1650 10 -6 9 -9 -1 -13 -8 -3 2 -6 22 -6 19 -1 41 -7 48
-13 11 -11 12 -10 6 2 -8 13 -7 13 8 1 12 -9 17 -10 17 -2 0 7 4 9 10 6 5 -3
18 -1 29 5 14 7 21 25 27 67 6 54 -6 552 -27 1033 -5 124 -12 295 -14 380 -3
85 -10 286 -15 446 -6 160 -10 320 -11 355 0 45 -3 58 -9 44 -8 -18 -9 -18 -9
5 -2 56 59 455 88 583 11 45 22 101 26 124 4 23 12 46 18 51 13 11 256 1 470
-19 122 -12 151 -9 131 11 -5 5 -83 27 -174 49 -91 22 -192 49 -224 60 -67 24
-117 27 -146 9 -29 -18 -72 8 -84 50 -8 30 -12 32 -52 32 l-43 0 10 -32z"/>
<path d="M2502 3213 c-6 -15 -34 -91 -63 -168 -28 -77 -69 -180 -91 -230 -55
-124 -78 -190 -78 -220 0 -14 -7 -55 -16 -90 -18 -71 -27 -77 -96 -65 -24 5
-100 14 -168 20 -69 6 -181 20 -250 30 -68 11 -126 17 -129 14 -11 -10 23 -22
127 -44 156 -34 262 -68 269 -88 10 -26 24 -32 76 -32 l49 0 -7 -912 c-7 -874
-8 -914 -26 -934 -11 -11 -19 -26 -19 -33 0 -7 -4 -10 -9 -7 -5 4 -8 17 -7 30
2 14 -1 30 -5 38 -7 11 -9 11 -9 0 0 -8 -5 -10 -12 -6 -8 5 -9 2 -5 -9 3 -9 3
-16 -1 -16 -21 3 -27 -4 -27 -34 l0 -32 -54 1 c-44 1 -57 5 -72 25 -18 22 -20
23 -33 7 -21 -28 -71 -23 -95 10 -20 27 -21 27 -27 5 -4 -15 -11 -20 -22 -16
-11 5 -14 2 -9 -9 6 -18 -8 -27 -66 -38 -33 -7 -40 -5 -54 16 -26 40 -81 68
-130 65 -31 -1 -45 2 -49 14 -3 8 -12 15 -20 15 -10 0 -13 7 -8 24 4 19 2 24
-13 23 -10 -1 -22 -8 -26 -14 -11 -17 -38 -16 -31 1 3 8 -3 16 -15 19 -23 6
-29 43 -9 49 9 3 10 11 3 27 -9 19 -12 20 -29 8 -14 -10 -17 -19 -11 -33 5
-10 9 -23 10 -29 2 -14 -46 -65 -62 -65 -7 0 -27 -9 -45 -19 -30 -19 -32 -19
-45 -3 -10 13 -14 14 -21 4 -10 -14 -56 -26 -47 -12 3 5 3 21 -1 35 -6 26 -7
26 -28 7 -41 -37 -56 -41 -81 -18 -12 12 -25 28 -28 36 -3 9 -6 10 -6 3 -1 -7
-8 -13 -16 -13 -8 0 -15 6 -16 13 0 6 -5 1 -11 -13 l-11 -25 -7 30 c-4 17 -8
23 -9 15 -1 -11 -7 -9 -21 8 l-19 22 -24 -22 c-13 -13 -22 -29 -20 -35 3 -7 0
-13 -7 -13 -6 0 -9 4 -6 8 2 4 1 14 -5 22 -6 11 -9 7 -9 -16 0 -38 -15 -52
-55 -52 -38 -1 -97 29 -90 45 2 7 2 13 -1 13 -2 0 -9 -11 -14 -25 -11 -28 -31
-32 -54 -10 -8 8 -19 15 -25 15 -6 0 -11 4 -11 10 0 5 -7 7 -15 4 -8 -3 -14
-9 -13 -12 5 -39 -14 -41 -65 -6 -29 19 -41 23 -51 15 -11 -9 -15 -4 -21 21
-4 18 -7 37 -6 41 1 5 -4 7 -11 4 -7 -2 -12 -10 -11 -16 2 -6 0 -11 -5 -10
-14 2 -52 -14 -52 -22 0 -16 -39 -30 -57 -20 -10 5 -26 12 -36 15 -10 3 -16 9
-14 14 12 18 -19 39 -55 38 l-38 -1 0 -302 0 -303 440 0 c335 0 439 3 437 12
-3 17 35 23 47 7 15 -20 66 -20 58 -1 -4 12 1 14 21 8 15 -3 27 -2 27 3 0 11
33 9 41 -2 3 -4 18 -3 33 3 15 5 32 7 38 4 6 -4 8 1 4 14 -7 20 -3 21 48 21
41 -1 56 -5 56 -15 0 -8 5 -14 10 -14 6 0 9 3 9 8 -3 19 2 22 17 8 8 -9 20
-14 25 -11 5 4 9 2 9 -3 0 -5 12 -7 28 -5 15 3 52 5 84 6 31 1 54 5 52 9 -3 5
-15 8 -26 8 -12 0 -19 3 -16 6 12 11 128 11 128 0 0 -6 4 -5 9 2 4 8 11 13 15
12 4 -1 20 0 37 4 19 4 28 10 23 17 -11 19 -233 4 -248 -16 -10 -14 -15 -14
-47 -1 -20 8 -39 12 -43 9 -3 -4 -6 -1 -6 5 0 7 -3 11 -7 11 -5 -1 -17 -1 -28
0 -17 1 -16 3 8 16 20 10 53 13 117 11 69 -3 92 -1 101 11 8 9 22 12 38 9 14
-3 20 -3 14 0 -17 7 -17 39 0 51 6 6 27 15 45 21 28 10 35 9 52 -8 18 -18 20
-18 20 -2 1 15 2 15 15 -2 13 -17 15 -18 15 -3 0 9 6 17 13 17 24 0 40 -18 40
-45 0 -19 2 -23 8 -14 5 8 9 22 9 31 0 50 79 34 81 -17 1 -31 3 -28 13 16 5
22 10 25 31 21 16 -3 25 -11 25 -23 0 -11 4 -19 9 -19 5 0 16 -3 25 -6 9 -3
16 -1 16 6 0 6 -4 8 -10 5 -5 -3 -10 1 -10 9 0 8 9 18 20 21 11 3 20 11 20 16
0 21 20 -3 29 -34 9 -31 9 -31 10 -5 1 15 5 30 11 33 10 6 11 5 15 -33 3 -33
15 -40 15 -8 0 16 4 25 10 21 6 -4 8 -16 4 -27 -4 -14 -2 -18 5 -14 6 4 11 16
11 27 0 28 19 61 31 53 6 -3 10 -18 9 -32 -4 -51 -1 -57 15 -36 8 10 15 28 15
40 0 27 10 36 25 24 14 -12 30 14 19 31 -3 5 -1 9 3 9 5 0 9 10 10 21 1 12 4
24 7 27 8 7 46 -37 58 -68 l10 -25 11 23 c13 29 27 28 27 -3 0 -14 4 -25 10
-25 13 0 23 44 17 75 -3 20 1 27 20 31 22 6 23 7 6 21 -10 8 -13 12 -6 8 7 -3
17 3 22 14 9 16 6 23 -20 41 -36 26 -43 22 -45 -28 -1 -20 -3 -48 -4 -62 l-2
-25 -7 25 c-4 14 -7 41 -7 62 1 31 -1 35 -16 27 -17 -9 -22 -5 -19 13 0 4 -6
5 -15 1 -10 -4 -17 2 -21 16 -3 11 -8 21 -12 21 -4 0 -8 172 -10 382 -1 211
-5 386 -8 391 -2 4 -7 112 -9 240 -2 128 -6 291 -8 362 -14 419 -10 504 26
505 3 0 20 -35 36 -77 17 -43 55 -136 84 -208 30 -71 96 -239 148 -373 98
-255 134 -322 57 -105 -25 70 -64 182 -86 248 -23 66 -51 143 -62 170 -40 96
-119 347 -119 379 0 17 -1 43 -1 58 -1 15 15 78 34 140 20 62 52 169 72 238
20 69 56 190 81 268 25 79 44 146 41 148 -2 3 -9 -8 -15 -23z"/>
<path d="M7847 2685 c3 -99 11 -225 19 -279 8 -55 14 -115 14 -134 0 -30 -3
-34 -20 -29 -27 7 -140 -9 -152 -21 -6 -6 -6 -18 1 -31 9 -17 21 -21 56 -21
l45 0 0 -39 c0 -32 -19 -70 -100 -205 -55 -91 -100 -168 -100 -172 0 -4 41 50
90 119 50 69 95 129 100 132 7 4 10 -209 10 -623 0 -346 3 -642 6 -658 5 -26
9 -29 42 -28 l37 1 1 159 c0 87 -3 240 -7 339 -4 99 -12 345 -18 548 l-11 367
22 35 c13 19 26 34 31 32 4 -1 94 -85 199 -187 l192 -185 -113 130 c-63 72
-142 159 -177 194 -35 35 -64 71 -64 81 0 10 -7 23 -15 30 -8 7 -15 23 -15 36
0 13 -9 83 -21 155 -11 72 -29 199 -39 282 l-18 152 5 -180z"/>
<path d="M5598 1607 c-20 -51 -39 -103 -42 -117 -2 -14 -8 -38 -11 -54 l-6
-29 -132 6 -132 6 75 -15 c41 -9 79 -19 85 -25 5 -5 19 -9 32 -9 l23 0 0 -328
c0 -306 -1 -329 -17 -329 -10 0 -21 5 -25 11 -6 8 -11 7 -17 -3 -7 -11 -13
-11 -32 3 -13 9 -38 16 -56 16 -23 0 -33 5 -38 20 -3 11 -13 20 -21 20 -8 0
-12 -5 -9 -10 7 -11 -35 -32 -72 -36 -12 -2 -32 -9 -45 -18 -19 -12 -92 -16
-118 -6 -3 1 -23 1 -45 0 -58 -2 -105 -19 -106 -38 0 -12 -3 -11 -9 5 -15 37
-44 46 -84 26 -20 -9 -38 -25 -42 -35 -3 -10 -12 -18 -20 -18 -8 0 -16 0 -19
0 -13 0 -44 -41 -49 -67 -6 -24 -3 -32 16 -41 13 -6 17 -11 11 -11 -7 -1 -13
-5 -13 -11 0 -6 9 -6 24 0 13 5 27 6 30 3 3 -4 6 -2 6 4 0 6 17 11 38 11 60 1
231 11 307 17 39 3 135 6 215 6 80 1 150 5 155 8 11 8 23 7 46 -3 15 -7 33 -5
89 9 14 4 45 6 70 6 51 0 110 16 110 30 0 5 -4 9 -10 9 -15 0 -12 20 5 26 8 3
22 -2 31 -11 9 -9 25 -14 35 -12 10 3 26 -3 36 -12 20 -18 63 -26 63 -12 0 5
9 7 20 4 15 -4 20 0 20 13 0 16 2 17 10 4 6 -10 10 -11 10 -2 0 6 6 12 14 12
20 0 14 25 -14 55 -23 25 -78 37 -64 13 5 -8 2 -9 -9 -5 -11 4 -17 1 -17 -7 0
-15 -29 -30 -39 -21 -3 3 1 10 9 15 11 7 8 10 -14 10 -16 0 -35 8 -42 17 -11
16 -13 16 -24 -9 -15 -33 -50 -44 -67 -21 -7 9 -13 13 -13 9 0 -5 -7 -3 -15 4
-21 18 -45 6 -38 -19 7 -27 -8 -27 -30 -1 -9 11 -24 20 -32 20 -13 0 -14 4 -5
20 10 18 9 19 -16 10 -15 -6 -28 -9 -29 -8 -4 6 -28 154 -29 178 0 14 1 127 2
253 2 175 5 227 15 227 7 0 20 -23 30 -51 10 -28 20 -49 23 -46 2 2 -3 23 -11
47 -19 53 -19 90 0 154 8 28 26 89 39 136 14 46 24 85 23 87 -2 1 -19 -39 -39
-90z"/>
<path d="M6757 1478 c20 -40 49 -95 66 -121 16 -26 27 -50 25 -52 -3 -3 -19
-7 -37 -9 -38 -4 -50 -14 -27 -21 9 -3 23 -7 31 -10 13 -4 15 -36 15 -209 0
-193 -1 -206 -20 -224 -18 -17 -19 -20 -5 -32 21 -18 19 -40 -5 -40 -11 0 -20
-3 -20 -8 0 -4 9 -13 20 -20 14 -9 20 -23 20 -51 0 -39 0 -39 -35 -35 -21 2
-35 0 -35 -6 0 -6 -4 -8 -10 -5 -15 9 0 -26 27 -63 21 -27 22 -33 9 -38 -23
-9 -20 -17 11 -31 37 -18 53 -16 53 5 0 13 2 14 9 3 5 -7 13 -11 19 -7 6 3 13
0 16 -6 3 -7 4 6 2 29 -2 30 1 47 12 55 11 9 14 9 9 1 -4 -6 -3 -14 3 -18 6
-4 8 -10 5 -14 -2 -5 7 -13 20 -19 14 -7 25 -17 26 -24 1 -7 4 -2 8 12 5 18
14 24 29 23 12 -2 22 2 22 7 0 5 7 7 15 4 8 -3 14 -9 13 -12 -2 -21 5 -27 33
-29 18 -1 39 2 47 6 9 5 26 5 38 1 16 -6 26 -5 34 6 15 17 50 19 50 2 0 -7 10
0 22 15 13 17 23 24 27 18 11 -17 71 -21 71 -5 0 8 7 14 17 14 14 0 14 2 -2
20 -10 11 -13 20 -7 20 7 0 12 -5 12 -11 0 -5 5 -7 10 -4 6 3 15 3 21 -1 8 -4
7 -9 -2 -15 -11 -6 -9 -13 9 -29 l22 -21 14 31 c10 24 15 28 19 16 4 -9 2 -16
-4 -16 -5 0 -4 -6 3 -14 10 -11 16 -9 31 10 10 13 25 24 34 24 13 0 13 3 3 15
-10 12 -10 18 0 30 9 10 9 15 1 15 -6 0 -11 11 -11 25 0 17 -6 25 -17 25 -15
0 -16 2 -3 10 13 8 12 10 -3 10 -10 0 -20 -6 -23 -14 -5 -12 -29 -24 -52 -25
-4 0 -9 -10 -12 -22 -4 -15 -15 -24 -34 -26 -25 -4 -28 -1 -23 16 5 21 3 22
-41 25 -8 1 -22 10 -31 21 -9 11 -26 25 -36 31 -12 7 -19 20 -17 33 2 11 -1
29 -7 38 -10 17 -10 17 -11 0 0 -10 -5 -15 -11 -12 -6 4 -8 13 -5 21 3 8 -1
14 -9 14 -8 0 -15 4 -15 10 0 5 -6 7 -14 4 -8 -3 -16 3 -19 15 -6 25 -54 29
-63 6 -4 -11 -10 -12 -18 -6 -12 10 -22 9 -61 -3 -11 -4 -24 -6 -29 -6 -5 1
-12 -4 -16 -10 -5 -8 -12 -7 -24 5 -13 14 -16 14 -16 2 0 -9 6 -18 13 -20 7
-3 4 -6 -6 -6 -16 -1 -17 -6 -12 -32 5 -22 4 -29 -4 -25 -6 4 -11 2 -11 -3 0
-6 -5 -11 -11 -11 -7 0 -9 9 -6 21 5 20 -8 57 -26 70 -26 19 -38 238 -16 296
6 15 14 57 17 93 6 53 11 66 30 76 36 18 38 25 5 18 -29 -6 -33 -3 -54 37 -24
49 -120 209 -125 209 -2 0 13 -33 33 -72z"/>
</g>
</svg>
