<?xml version="1.0" standalone="no"?>
<!DOCTYPE svg PUBLIC "-//W3C//DTD SVG 20010904//EN"
 "http://www.w3.org/TR/2001/REC-SVG-20010904/DTD/svg10.dtd">
<svg version="1.0" xmlns="http://www.w3.org/2000/svg"
 width="1400.000000pt" height="400.000000pt" viewBox="0 0 1400.000000 400.000000"
 preserveAspectRatio="xMidYMid meet">
<metadata>
Created by potrace 1.16, written by Peter Selinger 2001-2019
</metadata>
<g transform="translate(0.000000,400.000000) scale(0.100000,-0.100000)"
fill="#000000" stroke="none">
<path d="M0 2000 l0 -2000 4293 4 c2360 2 4317 7 4347 10 39 5 51 4 40 -3 -10
-7 231 -11 773 -11 524 0 786 3 782 10 -3 5 -1 10 4 10 6 0 11 -4 11 -10 0 -6
380 -10 1088 -10 673 0 1081 4 1071 10 -8 5 -44 12 -80 15 -181 15 -418 37
-534 50 -71 9 -238 24 -370 35 -132 12 -276 25 -319 30 -51 5 -86 5 -98 -1
-21 -11 -24 -28 -5 -30 23 -3 72 -6 105 -8 17 0 32 -5 32 -10 0 -6 -33 -9 -75
-8 -41 1 -75 5 -75 10 0 4 -17 7 -37 7 -31 1 -35 3 -20 11 26 16 12 27 -31 24
-20 -1 -95 -6 -167 -10 -71 -4 -139 -9 -150 -11 -34 -6 -274 -6 -284 0 -5 4
-7 16 -4 29 2 12 9 45 14 72 12 68 27 93 63 104 25 8 145 16 166 11 3 0 43 -3
90 -6 46 -3 90 -10 96 -15 6 -5 14 -23 18 -39 8 -40 22 -38 30 5 4 20 11 33
16 30 4 -3 10 -1 12 4 4 12 148 26 148 15 0 -5 21 -9 48 -9 26 0 57 -4 70 -8
17 -6 22 -5 22 7 0 13 13 16 63 17 59 1 90 3 149 14 16 2 28 -1 31 -8 3 -9 7
-9 18 -1 8 7 28 14 44 18 78 16 1142 0 1173 -17 12 -7 282 0 477 11 223 14
603 15 693 3 37 -6 111 -12 165 -15 l97 -4 0 118 0 117 -27 5 c-50 9 -140 8
-118 -1 35 -15 -34 -21 -271 -23 -174 -2 -220 0 -217 10 6 14 -2 15 -25 3 -10
-5 -249 -12 -532 -16 -283 -4 -535 -9 -560 -11 -94 -8 -714 -13 -685 -5 17 5
51 9 76 10 25 0 68 4 95 8 l49 8 -65 6 -65 6 85 1 c47 1 137 7 200 12 63 5
181 12 262 15 81 3 153 7 160 9 95 29 1370 43 1353 15 -4 -5 5 -9 19 -9 14 0
26 5 26 10 0 13 46 13 69 1 9 -6 52 -7 94 -4 l76 6 1 513 0 513 -27 4 -28 4
28 2 c20 1 27 6 27 22 0 16 -4 19 -21 14 -11 -4 -54 -7 -94 -7 -52 1 -77 -4
-86 -14 -6 -8 -26 -14 -43 -14 -17 0 -50 -5 -72 -10 -134 -31 -533 -46 -1469
-55 -319 -3 -634 -8 -700 -11 -66 -3 -209 -7 -317 -9 -109 -2 -206 -6 -216 -9
-12 -4 -27 3 -42 19 -29 31 -47 33 -27 2 l15 -23 -67 -3 c-92 -4 -105 -6 -119
-15 -6 -4 -12 -2 -12 3 0 6 17 21 38 35 20 13 44 31 52 41 14 17 14 17 -20 0
-19 -10 -47 -26 -62 -36 -35 -25 -37 -25 -130 16 -85 38 -113 43 -50 10 20
-11 57 -31 82 -45 l45 -25 -75 -6 c-41 -4 -127 -7 -191 -8 l-116 -1 -26 54
c-33 66 -33 67 -4 114 58 92 60 111 2 28 -40 -59 -53 -65 -135 -67 -58 -1 -54
-4 23 -14 l47 -6 0 -52 0 -52 -57 -3 c-32 -2 -75 -7 -96 -13 -22 -6 -67 -9
-100 -9 -34 1 -69 0 -77 -3 -8 -4 -56 -8 -107 -9 l-91 -3 -7 93 c-10 139 0
156 100 165 31 3 28 4 -17 5 -67 2 -63 -2 -163 176 -38 69 -71 123 -73 121 -2
-2 28 -66 67 -141 50 -97 67 -140 59 -145 -7 -5 -11 -26 -9 -54 3 -59 -56
-218 -78 -210 -8 3 -104 8 -213 10 -110 3 -204 8 -210 11 -6 4 -14 0 -19 -7
-6 -10 -9 -7 -9 11 l-1 25 -12 -27 c-12 -26 -13 -26 -107 -25 l-95 2 -11 180
c-8 131 -8 183 0 192 9 9 39 7 135 -12 69 -14 126 -23 128 -21 2 1 -52 17
-119 34 -81 21 -129 39 -139 51 -9 11 -35 74 -59 141 -44 125 -58 151 -35 65
41 -151 50 -193 47 -222 -3 -29 -88 -142 -198 -261 -17 -18 -51 -59 -75 -92
-24 -32 -50 -61 -58 -65 -25 -10 -362 -16 -374 -7 -17 13 -87 20 -87 8 0 -5
-3 -7 -6 -3 -3 3 2 37 12 76 9 40 14 74 12 77 -3 3 -14 -28 -23 -68 -17 -69
-34 -115 -35 -92 0 6 -12 9 -29 6 -15 -2 -42 3 -58 12 -21 10 -57 15 -116 15
-47 -1 -90 2 -96 6 -7 4 -11 -3 -11 -16 0 -12 -3 -20 -6 -17 -9 10 -23 602
-14 611 9 10 143 -56 311 -154 68 -40 149 -86 179 -102 106 -58 33 -9 -170
113 -259 156 -289 176 -300 206 -9 22 -20 169 -40 524 -4 82 -5 11 -2 -182 5
-316 5 -318 -16 -337 -12 -10 -22 -27 -22 -37 -1 -21 -48 -58 -265 -207 -133
-91 -206 -146 -195 -146 3 -1 64 40 135 89 121 84 320 210 330 210 7 0 6 -415
-1 -490 l-6 -66 -34 4 c-32 4 -50 24 -38 43 3 5 0 9 -5 9 -6 0 -11 -7 -11 -15
0 -8 -7 -15 -16 -15 -14 0 -15 2 -3 17 13 15 10 16 -41 10 -30 -4 -71 -7 -90
-7 -26 0 -31 -3 -20 -10 8 -5 42 -7 75 -5 33 3 53 2 45 -1 -8 -4 -18 -11 -21
-17 -4 -5 -32 -10 -63 -11 -31 0 -56 -5 -56 -11 0 -5 -6 -1 -12 9 -7 12 -9 49
-5 100 l5 81 -16 -83 c-11 -52 -24 -89 -34 -96 -16 -12 -252 -19 -683 -20 -66
0 -123 -4 -126 -9 -8 -11 -52 97 -51 126 0 12 12 76 27 142 14 66 28 136 30
155 5 36 -45 -119 -74 -226 -14 -56 -19 -62 -56 -77 -22 -9 -59 -19 -83 -23
-23 -4 -44 -10 -47 -13 -2 -4 19 -4 48 0 89 13 87 14 82 -32 -2 -23 -6 -43 -9
-46 -8 -8 -277 15 -289 25 -20 16 -66 22 -201 27 -71 3 -132 8 -136 10 -5 3
-10 -3 -13 -12 -11 -49 -18 192 -15 526 l3 373 136 -138 c75 -77 174 -182 220
-234 99 -112 223 -240 183 -189 -43 54 -120 144 -205 239 -84 95 -200 234
-272 326 -51 66 -56 89 -35 172 10 40 13 43 18 23 3 -14 12 -27 19 -29 9 -3
11 2 7 14 -5 17 -1 19 49 16 50 -4 55 -2 55 17 0 16 6 21 24 21 14 0 31 7 40
15 8 8 22 12 31 9 9 -4 20 -2 24 4 3 6 32 14 64 19 53 7 79 27 39 29 -44 3
-52 5 -52 14 0 6 10 8 23 5 18 -5 24 -2 24 11 0 14 -8 16 -49 11 -28 -4 -48
-2 -48 3 0 6 20 10 44 10 27 0 51 6 60 16 9 8 16 11 16 5 0 -15 97 -14 106 0
4 7 0 9 -14 5 -15 -5 -21 -1 -25 16 -8 28 -2 34 17 19 11 -9 16 -9 21 0 5 7
23 9 53 5 42 -6 44 -5 27 8 -15 11 -16 14 -5 14 8 -1 40 0 70 1 46 3 51 4 30
12 -19 7 -14 8 22 5 36 -3 51 1 63 14 13 15 32 18 100 18 63 -1 82 -4 78 -13
-3 -10 4 -10 34 0 21 8 50 14 66 15 15 0 27 4 27 9 0 11 449 11 456 0 7 -12
44 -11 44 0 0 5 -8 12 -17 14 -14 4 -12 5 5 6 13 1 22 -5 22 -14 0 -8 5 -15
11 -15 5 0 8 4 4 9 -3 5 -1 12 4 15 5 4 12 2 16 -4 3 -5 11 -10 16 -10 6 0 7
5 3 11 -4 8 17 9 74 4 56 -5 82 -3 87 5 5 8 23 9 56 5 49 -7 49 -7 50 22 l1
28 8 -30 c9 -34 11 -32 16 9 4 33 12 45 22 30 4 -6 14 -14 22 -17 11 -4 10 -7
-7 -12 -13 -4 -23 -11 -23 -15 0 -12 56 -23 79 -15 18 5 19 9 8 27 -10 16 -9
22 1 25 10 4 9 8 -3 17 -17 12 -12 14 43 18 7 1 10 8 8 15 -4 9 0 14 12 12 52
-5 92 2 92 16 0 11 7 13 29 9 16 -4 32 -1 35 5 11 17 57 13 72 -6 12 -17 13
-17 14 3 0 18 5 20 26 16 21 -4 25 -2 19 9 -6 11 -5 12 6 2 7 -7 20 -13 28
-13 14 0 14 2 1 10 -23 14 -4 23 21 10 22 -13 125 -9 162 5 12 5 17 2 17 -10
0 -9 4 -14 10 -10 5 3 7 12 3 20 -4 11 -1 13 11 9 9 -3 24 -3 34 2 25 11 82
11 82 -1 0 -5 5 -3 10 5 9 13 10 13 10 0 0 -12 2 -12 9 -2 8 14 101 26 101 13
0 -4 9 -7 20 -8 13 -1 18 2 14 9 -5 8 1 9 17 4 13 -4 33 -9 44 -10 12 -2 13
-2 3 1 -43 11 -12 18 57 13 41 -3 75 -2 75 2 0 14 62 20 71 7 7 -11 9 -10 9 3
0 9 8 17 18 16 9 0 33 3 52 7 27 5 139 18 213 24 5 1 5 5 2 11 -3 5 -3 10 2
11 4 0 21 3 37 5 17 3 32 0 37 -7 6 -10 11 -10 24 1 15 12 19 12 30 -3 13 -18
31 -24 20 -7 -6 10 13 14 48 11 9 -1 17 1 17 6 0 8 90 8 248 0 39 -2 72 -1 72
4 0 4 9 5 20 2 11 -3 27 0 35 7 7 6 31 10 52 9 21 -2 44 0 51 5 7 4 12 3 12
-2 0 -12 43 -10 52 3 4 6 8 2 8 -7 0 -14 9 -18 39 -18 22 0 42 -4 45 -9 7 -10
56 -2 56 10 0 5 5 9 11 9 6 0 9 -7 5 -15 -4 -12 0 -14 22 -9 15 4 31 11 36 15
18 16 35 10 31 -12 -3 -16 -1 -19 13 -14 34 15 60 17 80 6 17 -9 23 -8 30 5 6
11 16 14 31 9 13 -4 18 -11 14 -18 -4 -7 -1 -7 9 1 13 10 22 11 37 2 13 -6 21
-7 21 -1 0 6 12 6 32 0 41 -11 38 -11 33 4 -4 9 13 12 64 12 38 0 73 -3 77 -7
11 -12 46 -9 39 3 -5 7 20 9 75 8 62 -2 84 1 91 12 7 12 9 12 9 0 0 -8 3 -11
7 -8 3 4 12 2 20 -4 9 -9 13 -8 13 0 0 8 45 10 157 8 92 -2 178 1 207 8 47 10
74 11 101 5 27 -6 86 1 80 10 -3 5 -1 10 4 10 6 0 11 -4 11 -9 0 -13 458 -17
854 -7 123 3 216 1 226 -4 13 -7 20 -6 24 5 4 11 11 12 35 4 26 -9 63 -8 96 2
6 2 21 -3 34 -10 13 -7 34 -11 48 -8 13 2 27 -1 29 -7 2 -6 27 -11 59 -11 30
0 55 -2 55 -5 0 -8 186 -4 199 5 6 3 16 3 22 -1 6 -3 14 -2 18 4 7 11 117 19
141 9 8 -3 22 -5 30 -5 8 0 23 -3 33 -7 12 -5 17 -3 17 8 0 12 16 14 90 11 50
-2 95 -6 100 -9 5 -3 18 -1 29 5 16 8 22 6 30 -7 9 -17 11 -17 41 1 20 11 35
15 39 9 9 -15 48 -25 55 -14 8 12 49 1 59 -16 5 -7 23 -13 40 -13 18 0 48 -2
67 -5 19 -3 46 -7 60 -8 l25 -2 3 373 2 372 -7000 0 -7000 0 0 -2000z m5690
694 c0 -15 -42 -94 -50 -94 -6 0 -8 -4 -5 -10 4 -6 -1 -7 -11 -3 -11 4 -15 2
-11 -4 15 -25 -25 -45 -161 -83 -187 -51 -582 -143 -588 -137 -3 2 22 10 56
18 58 13 78 27 43 31 -10 1 -25 2 -33 4 -8 1 -22 2 -30 3 -12 1 -11 4 3 15 16
13 12 14 -38 12 -54 -2 -56 -1 -52 20 2 13 -1 25 -7 28 -6 2 6 4 27 3 20 0 37
-5 37 -11 0 -7 3 -6 8 1 9 15 82 19 130 9 19 -5 32 -4 32 2 0 5 -13 12 -30 16
-42 8 -39 32 5 34 19 1 44 6 55 12 10 5 42 11 69 13 28 1 51 7 51 12 0 6 4 4
9 -4 7 -10 13 -11 31 -1 17 9 21 9 15 0 -4 -7 5 -4 19 5 21 14 32 16 50 7 18
-8 30 -7 50 3 15 8 57 15 94 15 68 1 123 5 132 10 13 7 49 6 44 -1 -3 -5 -1
-9 5 -9 11 0 35 66 27 78 -3 5 1 9 9 9 8 0 15 -1 15 -3z m-85 -651 c-4 -247
-11 -475 -15 -508 -7 -57 -8 -58 -9 -15 -1 39 -20 97 -21 63 0 -18 -60 -17
-86 1 -11 8 -41 17 -67 21 -26 4 -47 12 -47 17 0 6 -6 8 -14 5 -7 -3 -17 -2
-22 3 -5 4 -25 11 -44 15 l-35 7 20 -23 20 -24 -25 20 c-83 65 -100 88 -100
133 0 35 3 43 15 38 8 -3 15 -1 15 3 0 5 -6 11 -14 14 -10 4 -11 17 -4 63 8
52 18 84 18 58 0 -6 30 -7 83 -1 45 4 133 11 196 15 182 11 148 35 -79 57
-168 17 -183 17 -192 3 -6 -8 -7 0 -2 22 3 19 9 37 13 40 3 3 3 23 0 45 -5 34
-6 36 -8 10 -1 -16 -4 -41 -8 -54 -6 -23 -7 -24 -15 -5 -5 13 -6 8 -2 -13 5
-27 2 -33 -13 -33 -30 0 -63 12 -58 20 3 5 14 6 25 3 12 -3 20 0 20 6 0 7 -4
9 -10 6 -6 -3 -7 1 -4 9 5 13 -4 16 -54 16 -34 0 -64 4 -67 10 -3 5 -18 9 -33
8 -15 -1 -54 -1 -87 1 -53 2 -57 4 -35 13 14 6 63 12 110 14 121 3 120 3 120
13 0 11 -55 31 -86 31 -17 0 -24 6 -24 19 0 15 11 19 63 25 34 4 70 7 80 7 19
0 24 15 5 17 -22 2 -41 8 -82 26 -22 9 -51 19 -65 23 -14 3 -32 15 -39 25 -7
10 -18 16 -23 13 -5 -4 -9 -2 -9 4 0 6 19 15 43 21 23 6 48 13 56 16 31 10
342 76 464 98 73 13 133 25 135 25 2 1 0 -200 -3 -446z m-440 -115 c-36 -184
-44 -202 -97 -225 -19 -9 -43 -10 -80 -3 -29 5 -79 12 -111 15 -32 4 -57 9
-54 11 4 5 75 12 177 19 87 7 90 7 90 17 0 4 -24 9 -52 9 -100 2 -120 16 -28
19 47 1 93 2 103 1 9 -1 17 3 17 8 0 6 -12 11 -27 12 -16 0 -39 2 -53 4 -14 2
-51 6 -82 10 -32 4 -58 9 -58 13 0 4 26 8 58 9 31 1 82 5 112 9 l55 7 -40 8
c-22 4 -59 8 -82 8 -24 1 -43 5 -43 11 0 12 45 24 64 17 8 -3 17 -3 20 1 9 8
34 13 70 13 19 0 30 6 33 20 9 32 15 21 8 -13z m3675 -259 l0 -170 -135 3
c-74 2 -139 8 -144 13 -6 6 14 38 55 85 86 99 215 240 220 240 2 0 4 -77 4
-171z m800 -290 l0 -36 -201 -7 c-176 -6 -204 -5 -226 9 -14 9 -23 18 -21 20
4 5 236 33 301 37 47 3 48 3 42 -22 -5 -24 -5 -24 10 -6 8 11 15 25 15 30 0 6
18 11 40 11 39 0 40 -1 40 -36z m2643 23 c16 -7 53 -12 83 -12 30 0 54 -4 54
-9 0 -18 -91 -24 -259 -18 -178 7 -232 15 -239 36 -4 11 10 12 71 7 43 -5 77
-4 81 2 8 13 175 8 209 -6z m-2139 -1 c8 -12 -29 -21 -86 -21 -45 0 -79 -18
-41 -22 38 -3 -127 -16 -224 -17 l-103 -1 0 35 0 35 224 0 c124 0 227 -4 230
-9z m-1003 -101 c13 -8 19 -7 19 0 0 13 163 2 168 -11 2 -5 27 -6 56 -3 41 5
54 3 59 -9 3 -10 14 -13 31 -10 14 3 26 1 26 -4 0 -5 -87 -10 -205 -10 l-205
-1 0 29 c0 31 16 37 51 19z m4079 -60 c-10 -7 30 -10 121 -10 157 0 249 -9
209 -21 -14 -4 -45 -8 -70 -8 -25 -1 -72 -8 -105 -16 -45 -11 -95 -13 -199 -8
-114 5 -138 4 -131 -7 7 -11 -49 -12 -325 -7 -183 4 -392 7 -463 7 -72 0 -127
3 -124 7 4 3 109 12 234 19 126 7 285 18 355 24 70 6 207 15 305 19 98 4 185
9 193 9 13 2 13 1 0 -8z m510 -501 l55 -2 -50 -7 c-27 -4 -205 -10 -395 -13
-190 -2 -320 -3 -290 -1 85 7 92 18 15 25 -61 5 517 4 665 -2z m-1465 -28
c142 -6 166 -8 95 -10 -65 -2 -87 -6 -70 -11 21 -7 22 -8 5 -10 -11 -1 -27 -3
-35 -4 -8 -2 -170 -9 -360 -15 -190 -6 -398 -13 -463 -16 -92 -4 -117 -2 -111
8 5 9 4 9 -7 0 -7 -7 -20 -13 -28 -12 -11 0 -10 3 4 9 15 6 9 9 -25 8 -36 0
-40 -1 -20 -8 16 -5 -18 -9 -93 -11 -66 -2 -121 -1 -124 4 -2 4 -1 7 4 6 4 -1
49 0 98 2 l90 3 -80 6 -80 6 80 2 c186 4 328 14 455 31 146 20 338 23 665 12z
m-1695 -51 c25 0 40 5 40 13 0 8 3 8 9 -2 6 -9 19 -12 38 -8 16 3 35 2 43 -4
10 -6 -2 -9 -40 -11 l-55 -1 60 -7 c86 -8 38 -20 -118 -29 -15 -1 -18 -9 -15
-53 l3 -53 92 -5 c50 -3 94 -8 98 -12 19 -19 -13 -28 -94 -28 -83 0 -89 -1
-95 -22 l-7 -23 -9 22 c-9 21 -15 22 -111 22 -55 0 -104 3 -107 6 -14 14 27
25 96 26 39 1 77 3 82 4 6 1 14 3 19 4 11 1 21 64 14 90 -5 20 -12 21 -114 21
-105 0 -125 5 -111 27 7 11 92 22 175 23 38 0 47 3 47 18 1 16 1 16 11 0 7
-12 22 -18 49 -18z m-810 -15 c0 -23 105 -21 119 3 7 11 10 13 11 3 0 -11 29
-12 170 -6 l170 7 0 -24 c0 -24 -17 -28 -110 -26 -29 0 -32 0 -217 -2 -118 -1
-143 -3 -143 -15 0 -12 -5 -10 -19 4 -17 17 -18 24 -8 45 13 29 27 34 27 11z
m-345 -147 c6 2 9 32 7 72 -1 40 2 70 8 70 5 0 10 -32 12 -72 l3 -72 53 -4
c47 -3 53 -1 61 20 l10 23 0 -22 c1 -26 19 -31 28 -8 4 12 9 10 19 -11 8 -14
14 -34 14 -44 0 -21 -25 -44 -39 -36 -5 4 -13 2 -16 -4 -5 -8 -11 -8 -20 0
-10 8 -70 8 -70 0 0 -6 -58 -4 -62 3 -2 4 -11 3 -18 -3 -9 -8 -15 -8 -20 0 -8
14 -48 13 -63 -2 -9 -9 -12 -9 -12 0 0 8 -24 12 -80 12 -65 0 -81 -3 -89 -17
-6 -10 -11 -16 -11 -13 0 3 -6 22 -14 44 -11 32 -11 43 0 64 8 16 11 43 7 74
-4 31 -2 48 5 48 7 0 12 -26 14 -62 l3 -63 73 -3 c46 -2 79 2 88 9 11 9 14 9
14 0 0 -8 12 -11 33 -9 l32 3 5 75 4 75 6 -75 c3 -43 9 -74 15 -72z m-463 60
c3 -60 4 -63 31 -66 l27 -3 0 67 c0 37 3 64 7 61 4 -4 6 -29 5 -55 -1 -26 2
-54 8 -62 18 -27 31 9 25 68 -4 34 -3 52 4 52 7 0 11 -24 11 -59 0 -33 4 -62
9 -66 12 -7 5 -85 -8 -98 -8 -8 -11 -7 -11 1 0 7 -7 12 -15 12 -8 0 -15 -5
-15 -12 0 -6 -8 -4 -19 6 -11 10 -25 15 -30 11 -6 -3 -11 0 -11 7 -1 7 -7 0
-15 -17 l-15 -30 3 33 c2 17 0 32 -4 32 -4 0 -7 41 -7 90 0 102 15 123 20 28z
m995 -63 c115 2 179 7 181 14 2 7 9 5 19 -4 8 -8 30 -15 48 -15 19 0 36 -4 40
-9 12 -20 -39 -32 -133 -33 -53 0 -109 -4 -124 -9 -19 -5 -28 -4 -28 4 0 8 -3
8 -8 2 -15 -22 -50 -31 -109 -30 -47 0 -64 -3 -69 -15 -4 -13 -7 -12 -16 3
-22 39 -27 76 -12 88 8 6 14 19 15 28 0 11 3 9 9 -6 9 -21 12 -21 187 -18z
m48 -158 c83 -2 173 -7 201 -11 l51 -8 9 -100 c7 -71 6 -102 -2 -109 -12 -10
-497 -34 -520 -25 -11 4 -14 30 -14 130 0 140 -4 133 79 129 25 -2 114 -4 196
-6z m-417 -39 c2 -10 11 -18 18 -18 8 0 14 -4 14 -10 0 -5 7 -10 15 -10 9 0
18 -7 21 -15 4 -8 10 -13 14 -10 4 3 8 -5 9 -18 2 -57 3 -113 2 -125 -1 -11
-58 -12 -317 -7 -227 4 -320 3 -329 -5 -19 -16 -74 -5 -91 17 -15 20 -9 138 8
160 15 18 81 21 96 3 10 -13 14 -13 27 4 8 11 15 15 15 8 0 -17 48 -26 64 -13
8 7 59 17 113 23 54 5 112 16 128 23 17 8 64 13 109 13 68 -1 79 -4 84 -20z
m-728 -44 c5 -5 10 -40 12 -78 l3 -69 -60 -14 c-77 -18 -121 -20 -653 -27
l-443 -7 3 70 2 70 48 -3 c26 -1 48 1 48 5 0 5 12 8 28 7 15 0 42 3 60 7 29 7
32 5 32 -15 0 -26 10 -21 14 7 2 14 10 17 37 15 40 -5 51 -10 44 -22 -7 -11
22 -40 40 -40 8 0 20 10 26 23 22 40 49 58 71 46 16 -8 23 -8 29 2 6 10 9 8 9
-8 0 -20 3 -21 30 -12 17 6 30 15 30 19 0 4 10 8 23 9 12 0 77 2 144 5 88 3
122 1 120 -7 -1 -6 8 -13 21 -15 28 -4 62 -31 62 -49 0 -7 5 -13 10 -13 6 0
10 7 10 15 0 8 -5 15 -10 15 -7 0 -7 7 0 20 6 11 15 18 21 15 5 -4 9 0 9 7 0
8 12 15 28 16 15 1 28 6 29 10 4 10 112 7 123 -4z m-1274 -60 c8 3 14 2 14 -3
0 -4 7 -8 15 -8 8 0 12 4 9 8 -2 4 0 10 6 14 6 4 10 -21 10 -69 l0 -76 -37 -1
c-33 0 -100 -5 -203 -12 -37 -3 -59 41 -40 80 7 15 14 32 14 37 1 13 26 20 26
7 0 -14 52 -3 63 13 5 8 10 6 17 -4 6 -10 10 -11 10 -2 0 16 28 15 45 -1 7 -8
15 -25 18 -38 2 -13 6 5 7 41 2 36 5 52 7 37 3 -20 9 -27 19 -23z m-320 -18
c-3 -14 -1 -28 6 -32 6 -4 8 -3 5 3 -4 6 -1 13 7 16 26 10 58 -94 34 -109 -7
-4 -38 -9 -69 -10 -47 -2 -57 0 -52 12 3 8 17 14 32 14 36 0 71 11 71 21 0 5
-22 9 -49 9 -36 0 -51 4 -55 16 -6 15 -8 15 -32 0 -27 -19 -134 -31 -134 -16
0 6 -9 6 -22 1 -13 -5 -47 -6 -76 -3 -29 2 -63 0 -75 -6 -12 -6 -46 -13 -74
-15 -44 -3 -53 -1 -53 12 -1 14 -2 14 -11 -2 -7 -12 -17 -15 -36 -11 -15 4
-28 2 -32 -5 -6 -9 -14 -9 -34 0 -15 7 -24 16 -20 21 3 6 -4 5 -16 -1 -24 -13
-45 -6 -34 12 5 9 3 9 -8 0 -12 -10 -15 -9 -16 7 -1 16 2 17 30 9 41 -12 50
-11 42 1 -8 13 48 -11 57 -25 4 -5 10 -6 14 -2 4 4 -1 13 -11 21 -16 12 -13
13 29 12 28 -1 52 4 58 11 14 17 28 16 28 -2 0 -8 5 -15 11 -15 5 0 8 4 5 8
-2 4 -1 14 4 22 7 11 10 11 22 -1 8 -8 17 -21 21 -29 3 -9 6 -4 6 12 1 18 8
29 22 33 12 4 100 6 197 5 212 -3 202 -4 202 15 0 8 3 15 6 15 3 0 3 -11 0
-24z"/>
<path d="M13870 273 c-98 -15 -96 -14 -76 -28 18 -13 17 -14 -6 -20 -14 -4
-97 -5 -185 -2 -123 3 -165 0 -179 -10 -12 -9 -51 -13 -123 -13 -72 0 -102 -3
-95 -10 7 -7 96 -12 225 -14 118 -2 262 -9 321 -16 111 -12 174 -8 80 5 -29 4
-55 11 -57 15 -3 5 47 11 110 15 l115 7 0 33 c0 21 -6 35 -16 39 -16 6 -71 6
-114 -1z"/>
<path d="M12550 220 c-135 -3 -243 -7 -240 -8 3 -2 61 -7 130 -13 182 -14 253
-23 274 -36 17 -9 16 -11 -15 -21 -19 -6 -79 -11 -134 -12 -54 -1 -104 -5
-110 -10 -6 -5 -17 -5 -25 0 -8 5 -18 6 -22 4 -5 -3 -15 1 -23 9 -14 14 -55
13 -55 -2 0 -3 -11 -7 -25 -7 -16 -1 -25 3 -25 13 0 10 -6 13 -16 9 -9 -3 -18
-6 -20 -6 -3 0 -3 -3 -1 -7 3 -5 -51 -9 -118 -10 -119 -3 -155 5 -119 25 16 9
16 10 -2 15 -43 13 -302 29 -318 20 -13 -7 16 -13 101 -22 65 -7 134 -16 153
-21 30 -7 24 -8 -36 -9 -39 -1 -74 2 -78 6 -4 4 -21 6 -39 5 -18 -2 -77 7
-132 18 -55 12 -140 24 -189 27 l-89 6 7 -26 c6 -26 -1 -33 -27 -28 -5 1 -6
-3 -2 -9 3 -5 30 -10 58 -10 29 0 223 -16 432 -36 424 -41 539 -48 565 -34 19
10 92 2 85 -10 -2 -4 22 -8 55 -8 33 0 60 3 60 9 0 5 -11 9 -24 9 -14 0 -28 4
-31 10 -8 13 34 12 200 -1 72 -6 141 -12 154 -12 27 -2 42 -27 16 -27 -9 0
-14 -4 -10 -10 3 -5 118 -9 288 -8 222 0 261 2 185 9 -53 4 -106 13 -118 19
-11 6 -20 7 -20 1 0 -14 -51 -24 -63 -12 -6 6 -21 11 -34 11 -13 0 -23 4 -23
9 0 11 26 21 53 20 12 0 16 -3 10 -6 -22 -8 -14 -23 12 -23 18 0 23 4 18 16
-5 14 0 15 34 9 26 -4 43 -2 48 4 3 6 30 11 58 11 51 0 52 0 25 14 -15 8 -54
17 -85 21 -91 9 -120 14 -182 30 -33 8 -73 15 -90 15 -27 0 -29 2 -22 22 7 19
14 22 64 19 33 -1 57 2 57 7 0 6 -49 11 -123 11 -68 1 -138 6 -157 11 -19 6
-39 9 -45 8 -5 -1 -120 -5 -255 -8z"/>
<path d="M13883 95 c4 -11 -86 -33 -148 -36 -36 -1 -34 -2 17 -9 31 -4 72 -14
90 -22 18 -9 61 -16 96 -17 l62 -2 0 45 c0 30 -4 46 -12 47 -84 4 -108 3 -105
-6z"/>
</g>
</svg>
