<?xml version="1.0" standalone="no"?>
<!DOCTYPE svg PUBLIC "-//W3C//DTD SVG 20010904//EN"
 "http://www.w3.org/TR/2001/REC-SVG-20010904/DTD/svg10.dtd">
<svg version="1.0" xmlns="http://www.w3.org/2000/svg"
 width="1400.000000pt" height="400.000000pt" viewBox="0 0 1400.000000 400.000000"
 preserveAspectRatio="xMidYMid meet">
<metadata>
Created by potrace 1.16, written by Peter Selinger 2001-2019
</metadata>
<g transform="translate(0.000000,400.000000) scale(0.100000,-0.100000)"
fill="#000000" stroke="none">
<path d="M1082 3737 l266 -262 -51 -100 c-74 -143 -137 -278 -137 -294 0 -9
-4 -10 -12 -3 -22 17 -52 18 -66 2 -12 -13 -13 -13 -8 2 2 9 -1 18 -7 21 -17
6 -38 -3 -31 -14 3 -5 0 -9 -5 -9 -26 0 -8 -19 22 -23 17 -2 -7 -5 -54 -5
-102 -2 -141 4 -166 27 -10 9 -34 17 -53 17 -59 2 -90 8 -90 17 0 5 -7 4 -15
-3 -12 -10 -19 -10 -27 -2 -15 15 -32 16 -23 2 10 -16 -11 -12 -25 5 -9 11
-16 12 -25 5 -8 -6 -16 -7 -19 -2 -3 5 -29 10 -58 10 -29 1 -71 4 -93 6 -22 3
-97 10 -167 16 -69 5 -138 14 -153 20 -14 5 -40 10 -56 10 l-29 0 0 -1590 0
-1590 2332 0 c1571 1 2328 4 2321 11 -5 5 -20 11 -32 12 -34 2 -24 17 12 17
18 0 38 5 45 12 8 8 65 14 167 16 126 4 155 7 155 19 0 8 5 11 11 8 6 -4 8 -9
5 -12 -7 -7 20 -33 33 -33 6 0 11 5 11 10 0 6 -7 10 -15 10 -8 0 -15 5 -15 11
0 5 5 7 11 3 13 -7 172 -6 193 2 7 3 21 -2 30 -11 9 -9 16 -12 16 -6 0 5 -5
13 -10 16 -6 4 -8 10 -5 15 3 4 -2 10 -10 14 -8 3 -15 1 -15 -5 0 -6 -4 -8 -9
-5 -5 4 -21 2 -36 -4 -17 -7 -24 -7 -20 0 3 6 -2 13 -11 17 -10 4 -19 2 -22
-5 -2 -7 -11 -12 -20 -12 -15 0 -15 2 -2 10 11 7 11 10 2 10 -7 0 -10 5 -6 11
3 6 14 9 24 6 10 -2 23 -1 30 3 7 4 25 4 40 0 16 -4 32 -4 36 0 13 12 84 -22
84 -40 0 -13 -1 -13 -10 0 -9 13 -11 13 -19 1 -6 -9 -5 -19 4 -28 17 -16 117
-22 122 -7 2 6 14 9 26 7 12 -2 33 0 47 6 24 9 23 10 -11 10 -25 1 -36 6 -36
16 0 8 4 15 9 15 5 0 7 4 4 9 -7 11 13 9 33 -3 10 -6 12 -5 7 2 -5 8 1 11 18
10 13 -1 22 -6 20 -10 -3 -4 6 -8 20 -8 14 0 26 -4 26 -8 0 -18 -14 -21 -34
-7 -24 17 -36 19 -36 5 0 -5 10 -10 23 -10 18 0 19 -2 7 -10 -11 -7 -6 -10 21
-10 20 0 39 -3 43 -7 4 -4 28 -8 54 -9 85 -4 98 -6 79 -11 -9 -2 -14 -9 -11
-15 4 -6 2 -8 -4 -4 -17 10 -24 -10 -8 -24 10 -8 31 -9 63 -4 l48 7 -35 13
c-32 12 -33 13 -12 20 27 8 28 20 2 27 -13 3 -20 14 -20 30 0 14 -6 28 -12 30
-7 3 -2 6 12 7 14 1 32 3 40 4 8 0 14 7 13 13 -2 7 5 13 15 13 10 0 28 8 41
17 16 10 45 17 83 17 32 1 60 6 62 12 2 6 -7 9 -24 6 -16 -2 -36 1 -47 7 -16
9 -15 10 10 11 15 0 27 6 27 13 0 8 3 9 8 1 4 -6 20 -14 36 -18 21 -5 26 -10
17 -16 -9 -5 -10 -13 -5 -21 15 -25 13 -40 -9 -50 l-22 -10 22 5 c19 3 24 -2
29 -30 3 -19 3 -45 0 -58 -10 -39 2 -56 40 -56 31 0 33 2 24 24 -6 16 -5 26 1
28 9 3 13 36 24 170 2 26 7 52 11 59 4 8 3 9 -4 5 -7 -4 -12 -3 -12 2 0 5 18
10 41 10 23 1 44 3 47 6 3 3 -16 6 -43 6 -27 0 -45 3 -41 7 4 4 36 6 71 5 38
-1 65 2 65 8 0 6 -11 10 -25 10 -14 0 -25 4 -25 10 0 5 13 7 30 4 19 -4 30 -2
30 5 0 13 67 15 72 2 6 -19 630 -29 636 -11 2 4 66 9 144 9 77 1 143 2 147 3
22 2 84 -4 74 -9 -18 -7 -16 -28 2 -43 12 -10 21 -10 40 -2 15 7 26 8 30 2 4
-6 1 -10 -5 -10 -6 0 -9 -4 -6 -8 3 -5 20 -7 38 -4 18 2 30 2 27 -2 -11 -12
-169 -17 -169 -6 0 13 -237 13 -245 0 -4 -6 14 -10 47 -11 39 0 48 -3 33 -9
-14 -6 -4 -8 35 -8 33 1 42 3 23 5 -45 6 -41 19 5 18 56 -2 153 -25 147 -35
-3 -5 0 -12 6 -16 8 -4 7 -9 -2 -15 -15 -9 -13 -10 46 -25 29 -8 29 -9 -13
-12 -34 -2 -42 -7 -38 -18 3 -9 6 -47 6 -85 0 -67 1 -69 25 -69 14 0 25 1 25
3 0 1 -4 17 -9 35 -9 29 -7 32 11 32 17 0 20 -5 16 -35 l-4 -35 48 0 49 0 -1
43 c0 23 0 57 -1 76 0 49 -2 55 -23 67 -19 11 -19 12 2 18 12 4 22 16 22 26 0
10 4 21 10 25 5 3 7 12 4 19 -4 9 7 16 31 20 21 4 40 5 43 2 3 -3 -2 -6 -11
-6 -9 0 -17 -4 -17 -9 0 -5 -8 -12 -17 -14 -16 -4 -16 -5 1 -6 13 -1 17 -6 13
-21 -3 -11 -1 -20 4 -20 5 0 9 -4 9 -10 0 -5 -10 -10 -22 -10 -12 0 -19 -3
-15 -6 9 -10 299 -4 316 6 11 7 -25 10 -114 9 -153 -1 -157 0 -128 11 15 6 21
15 17 25 -4 10 0 15 10 15 26 0 18 17 -10 24 -15 4 -24 9 -22 12 3 2 207 -2
454 -10 247 -8 582 -18 744 -21 162 -3 320 -8 350 -10 49 -3 183 -8 615 -20
72 -2 157 -7 190 -11 99 -11 123 -13 285 -15 85 -2 178 -8 205 -14 28 -7 86
-13 130 -14 44 -1 84 -6 90 -10 10 -8 179 -30 264 -34 l45 -2 1 -48 c0 -44 -1
-47 -25 -48 -262 -8 -326 -8 -390 2 -54 8 -75 8 -78 0 -2 -6 -29 -11 -60 -12
-31 0 -91 -6 -132 -14 -63 -11 216 -13 1798 -14 l1872 -1 0 1336 0 1335 -32
-4 c-18 -2 -46 -9 -63 -16 -16 -7 -51 -13 -76 -12 -29 0 -51 -5 -59 -13 -7
-10 -26 -13 -56 -11 -26 2 -42 0 -39 -5 9 -14 -29 -51 -51 -51 -11 -1 -29 2
-41 6 -16 5 -23 3 -23 -6 0 -8 -5 -6 -13 6 -15 19 -42 12 -34 -9 4 -9 -17 -7
-71 7 -84 22 -123 24 -222 14 -36 -4 -108 -9 -160 -13 -146 -9 -202 -13 -235
-18 -27 -3 -74 10 -85 25 -5 7 -35 12 -56 10 -13 -1 -14 -51 -1 -51 4 0 7 -5
7 -11 0 -6 -9 -9 -20 -6 -11 3 -20 1 -20 -4 0 -10 -110 -12 -135 -3 -13 5 -14
9 -3 15 11 7 10 11 -2 19 -22 15 -30 12 -30 -9 0 -29 -29 -33 -99 -15 -70 17
-91 14 -91 -15 0 -17 -6 -20 -35 -19 -34 1 -69 -17 -60 -32 3 -4 -19 -11 -48
-15 l-52 -7 43 -13 c24 -7 54 -12 67 -10 14 1 25 -2 25 -7 0 -5 5 -6 10 -3 6
3 10 -4 10 -17 1 -21 2 -22 14 -6 16 22 23 22 44 2 15 -15 14 -16 -6 -10 -13
5 -22 3 -22 -3 0 -6 11 -11 24 -11 14 0 27 -4 30 -8 6 -10 -55 -9 -71 1 -8 5
-13 3 -13 -3 0 -8 -17 -11 -50 -8 -28 1 -50 0 -50 -3 0 -4 -15 -4 -32 0 -40 8
-88 3 -88 -9 0 -9 37 -19 88 -22 23 -2 32 -7 32 -20 0 -18 -8 -22 -47 -18 -12
0 -35 -6 -52 -15 -17 -8 -57 -18 -88 -20 -32 -3 -80 -8 -108 -12 -27 -3 -81
-6 -118 -7 -47 -2 -71 -7 -78 -17 -7 -12 -9 -12 -9 1 0 13 -1 13 -10 0 -9 -13
-10 -13 -10 0 0 13 -2 13 -9 1 -7 -10 -35 -16 -93 -18 -189 -9 -182 -9 -200
14 -17 19 -58 23 -58 4 0 -7 -2 -7 -103 -11 -37 -1 -69 -1 -72 1 -3 4 -8 182
-6 219 1 9 11 15 29 15 60 1 287 17 293 21 4 2 42 -5 84 -16 88 -22 223 -19
238 6 9 16 118 8 129 -10 8 -12 113 -18 148 -9 13 3 19 11 16 19 -3 8 -1 14 5
14 24 0 1 46 -36 71 -73 50 -128 73 -182 74 -49 2 -53 1 -53 -20 0 -42 -19
-46 -109 -25 -100 24 -94 24 -88 1 4 -17 -2 -19 -61 -19 -40 0 -73 5 -86 14
-29 18 -243 2 -260 -21 -16 -20 -63 -8 -70 18 -3 12 -6 106 -6 209 l0 186 68
-38 c73 -43 527 -223 544 -218 11 4 -260 140 -474 240 l-88 41 0 43 c0 42 -1
44 -30 44 -21 0 -30 -5 -30 -16 0 -9 -6 -14 -12 -11 -9 3 -12 25 -10 78 3 55
-6 119 -32 249 -19 96 -42 229 -51 295 -10 66 -19 122 -21 124 -11 12 9 -264
42 -580 9 -86 14 -168 10 -182 -4 -19 -25 -36 -71 -62 -61 -35 -125 -84 -276
-215 -47 -41 -58 -47 -43 -25 11 17 40 68 63 115 53 105 108 206 134 243 10
16 17 30 14 33 -4 5 -163 -233 -244 -366 -22 -36 -38 -71 -35 -78 2 -7 0 -12
-5 -10 -4 1 -17 -3 -29 -9 -14 -8 -33 -9 -60 -3 -43 11 -320 11 -429 1 -56 -5
-19 -9 185 -20 140 -7 262 -17 270 -22 8 -4 10 -9 4 -9 -5 0 -20 -9 -31 -20
-18 -16 -22 -17 -27 -5 -7 19 -23 19 -42 0 -9 -8 -24 -15 -35 -15 -10 0 -19
-4 -19 -10 0 -11 -72 -32 -120 -35 -19 -1 -52 -5 -73 -9 -88 -19 2 -53 168
-65 66 -4 130 -4 142 0 12 4 31 7 42 6 20 -1 21 -7 21 -97 l0 -95 -67 -1 c-38
0 -110 -4 -160 -7 -74 -6 -100 -4 -130 8 -21 9 -67 18 -103 21 -36 2 -75 6
-87 9 -32 7 -76 -12 -69 -30 9 -24 -3 -43 -31 -50 l-26 -6 36 -25 c20 -13 46
-23 59 -23 33 1 152 -21 161 -30 4 -4 3 -19 -2 -33 -9 -24 -13 -25 -138 -33
-163 -11 -215 -9 -269 10 -60 20 -101 19 -113 -3 -6 -9 -11 -14 -11 -10 0 4
-14 1 -32 -6 -35 -15 -83 -5 -106 23 -9 10 -11 11 -6 2 6 -11 3 -13 -12 -7
-10 5 -28 11 -39 14 -11 3 -35 14 -53 24 -38 21 -185 32 -215 16 -19 -10 -123
-23 -167 -21 -40 2 -83 3 -115 2 -81 -1 -138 8 -151 26 -8 10 -14 15 -14 9 0
-5 -4 -3 -8 3 -5 7 -32 14 -63 15 -29 1 -57 6 -61 12 -4 6 -12 5 -21 -3 -25
-20 -181 -3 -240 26 l-48 24 -17 -21 -17 -20 -37 26 c-20 15 -49 27 -64 27
-15 0 -43 6 -61 13 -23 10 -71 14 -156 13 -200 -2 -187 -5 -187 37 0 19 4 33
9 29 6 -3 63 -8 128 -10 128 -6 227 -17 257 -30 16 -7 18 -5 12 10 -4 11 -4
17 -1 13 4 -3 16 3 27 14 15 15 17 22 8 34 -7 7 -16 12 -19 9 -4 -2 -8 2 -8 9
0 9 7 12 16 8 9 -3 4 5 -11 16 -34 28 -40 28 -32 -4 7 -26 6 -26 -27 -20 -19
4 -48 8 -65 10 -18 1 -84 34 -148 72 -109 65 -115 71 -116 102 0 34 -16 42
-38 20 -10 -10 -11 -1 -6 43 4 32 -1 128 -10 220 -9 90 -18 182 -19 204 -2 22
-4 -77 -5 -220 -1 -143 -6 -265 -10 -272 -4 -6 -20 -16 -35 -22 l-27 -11 0
364 c0 314 2 365 15 370 8 3 15 12 15 20 0 9 21 20 58 30 58 16 117 45 472
227 199 102 254 136 165 101 -184 -73 -468 -189 -556 -228 -80 -36 -117 -47
-159 -48 -46 -1 -55 -4 -52 -18 5 -33 -18 -19 -101 60 -51 48 -134 109 -217
161 -74 46 -192 122 -263 168 -70 46 -135 86 -145 89 -21 7 -24 10 140 -118
66 -51 169 -131 228 -178 59 -47 153 -118 209 -159 69 -51 103 -82 108 -100 3
-14 -1 -55 -10 -91 -25 -96 -33 -175 -53 -482 -12 -188 -21 -279 -29 -282 -11
-4 -167 -118 -189 -137 -5 -5 -7 -11 -4 -15 4 -3 33 12 65 33 32 22 83 54 114
70 32 17 68 38 81 47 l25 16 2 -42 c1 -24 -1 -63 -4 -88 l-6 -45 -63 2 c-40 1
-74 -4 -92 -14 -27 -14 -62 -11 -144 12 -3 1 -17 5 -32 9 -16 5 -26 12 -23 16
3 4 -1 8 -8 7 -35 -1 -49 4 -44 17 4 11 -2 12 -35 3 -31 -8 -42 -7 -48 3 -4 7
-13 9 -20 5 -6 -4 -20 1 -30 10 -18 16 -20 16 -26 2 -3 -10 -15 -15 -27 -13
-12 1 -35 0 -52 -4 -16 -3 -45 -3 -62 1 -18 3 -30 3 -28 -1 3 -4 -2 -10 -10
-14 -8 -3 -17 -1 -20 5 -4 5 -11 7 -16 4 -5 -4 -9 -1 -9 4 0 6 -5 11 -11 11
-5 0 -7 -5 -3 -11 4 -8 -1 -9 -16 -4 -12 4 -45 8 -73 10 -29 1 -63 7 -78 13
-14 5 -37 8 -52 5 -15 -3 -33 -1 -40 5 -6 5 -27 9 -44 7 -18 -1 -33 1 -33 4 0
9 -85 5 -100 -4 -7 -4 -16 -1 -21 6 -8 12 -11 12 -18 -1 -6 -8 -12 -12 -14
-10 -9 9 -13 610 -4 610 4 0 38 -16 75 -35 37 -19 130 -53 207 -76 77 -22 194
-58 261 -80 125 -40 145 -45 129 -30 -9 8 -441 181 -605 242 -50 19 -66 30
-68 47 -2 12 -7 22 -11 22 -5 0 -11 39 -15 88 -6 87 -134 625 -135 571 -1 -23
62 -447 90 -611 16 -93 10 -107 -63 -151 -37 -21 -141 -110 -248 -211 -158
-149 -187 -173 -202 -163 -9 7 -78 59 -153 115 -75 57 -138 102 -141 99 -2 -2
58 -60 133 -127 87 -78 137 -130 136 -141 -2 -12 3 -16 16 -12 24 6 61 -40 54
-67 -6 -23 -16 -25 -44 -9 -15 8 -17 14 -10 23 8 9 7 13 -4 13 -8 0 -12 -4
-10 -8 5 -7 -36 -6 -180 7 -44 4 -96 8 -115 9 -33 3 -53 6 -145 21 -22 4 -58
8 -80 9 -22 1 -50 5 -62 8 -14 4 -23 1 -23 -6 0 -9 -2 -9 -8 -1 -4 7 -36 15
-72 19 -36 4 -73 11 -82 16 -11 6 -18 6 -18 0 0 -5 -10 -8 -22 -6 -13 2 -45 6
-73 10 -27 3 -54 10 -60 14 -5 5 -25 8 -42 6 -41 -2 -41 0 -2 115 31 93 36
146 7 74 -9 -21 -32 -74 -52 -116 -35 -76 -36 -78 -61 -66 -19 8 -22 14 -13
20 9 5 6 8 -10 8 -13 0 -21 4 -18 9 3 4 -5 6 -18 4 -22 -5 -24 -2 -22 27 2 29
1 30 -11 14 -7 -10 -13 -12 -13 -6 0 7 -12 18 -26 24 -20 10 -27 9 -34 -2 -5
-8 -12 -11 -16 -7 -4 3 -1 13 5 21 7 8 8 17 3 20 -6 3 -12 -3 -15 -13 -3 -14
-14 -18 -51 -18 -25 0 -46 4 -46 8 0 5 10 9 23 9 l22 1 -22 18 c-13 11 -23 25
-23 33 0 10 -2 10 -8 1 -9 -15 -52 -13 -52 2 0 7 -15 11 -34 10 -19 0 -32 4
-30 10 2 5 -8 11 -23 12 -111 7 -166 7 -170 0 -2 -4 -10 -4 -16 0 -7 4 -14 8
-17 9 -38 12 -49 18 -44 26 4 6 -2 8 -14 4 -11 -4 -29 -3 -39 3 -28 15 -116
46 -133 47 -8 0 -23 4 -33 8 -9 5 -26 6 -37 3 -11 -3 -20 0 -20 6 0 8 -3 8
-10 1 -8 -8 -27 -6 -63 6 -29 10 -54 14 -57 9 -3 -5 -30 -4 -60 2 -30 6 -66
10 -80 10 -14 0 -50 -1 -80 -2 -30 -1 -73 3 -95 9 -22 6 -128 14 -235 17 -107
4 -198 9 -201 10 -3 2 -81 7 -175 10 -93 4 -185 8 -204 10 -19 2 -73 6 -120
10 -47 3 -92 7 -100 10 -8 2 -94 9 -190 15 -196 12 -283 20 -289 26 -3 3 -7
82 -9 177 -5 195 -3 201 66 212 137 21 220 43 392 105 107 39 252 89 323 111
70 22 127 45 127 50 0 6 -7 8 -15 5 -9 -3 -145 -37 -303 -76 -158 -39 -354
-88 -437 -110 -82 -22 -153 -40 -157 -40 -4 0 -8 10 -10 23 -2 15 -11 23 -28
25 -31 5 -80 50 -80 74 0 11 18 61 40 113 43 100 44 105 32 105 -4 0 -27 -43
-51 -95 -24 -52 -46 -95 -50 -95 -3 1 -28 21 -56 46 -48 44 -242 208 -406 342
-157 128 -95 53 163 -201z m325 -319 c13 -12 23 -33 23 -49 0 -14 7 -32 15
-39 20 -17 19 -23 -14 -110 -16 -41 -37 -114 -46 -161 l-17 -87 -34 10 c-19 5
-38 7 -43 3 -5 -3 -11 -1 -13 5 -2 6 -21 12 -43 13 -33 3 -41 8 -43 26 -2 12
8 39 21 59 41 60 80 140 122 249 22 57 42 103 44 103 3 0 15 -10 28 -22z
m9613 -642 c0 -90 -3 -184 -6 -210 -6 -41 -9 -46 -33 -46 -14 0 -45 15 -68 34
-63 50 -179 61 -198 19 -7 -17 -19 -23 -45 -24 -88 -4 -147 11 -101 26 14 4
21 15 21 33 0 23 17 39 106 102 59 41 152 110 208 152 55 43 104 77 109 78 4
0 7 -74 7 -164z m-4935 -132 l-6 -71 -107 -32 c-59 -18 -146 -46 -194 -62 -98
-33 -149 -37 -169 -13 -11 13 -10 18 8 32 226 180 433 352 453 378 13 15 15 8
18 -72 2 -49 0 -121 -3 -160z m-3549 194 c9 -10 -11 -49 -25 -47 -37 3 -71 -2
-71 -11 0 -5 12 -10 26 -10 21 0 25 -4 21 -19 -4 -16 -1 -17 29 -11 26 6 34 5
34 -6 0 -11 19 -13 95 -10 93 3 95 3 90 -18 -5 -19 -5 -19 5 -4 10 17 13 17
42 2 16 -9 27 -11 24 -5 -4 6 0 11 8 11 9 0 16 -4 16 -8 0 -5 42 -9 92 -11
132 -3 123 -11 -13 -11 -135 -1 -500 -8 -514 -11 -5 -1 -46 3 -90 9 -81 11
-226 10 -323 -3 -42 -5 -56 -3 -65 9 -17 22 -63 28 -222 31 -160 2 -155 2
-155 14 0 5 21 9 48 10 26 0 61 2 77 5 17 2 36 4 43 5 7 1 11 5 8 10 -3 5 9
11 26 15 17 3 34 2 38 -3 3 -6 18 -12 33 -15 14 -2 32 -8 38 -12 8 -5 9 -3 4
6 -6 10 -4 12 7 8 22 -9 108 12 105 25 -1 6 15 14 36 17 20 4 37 4 37 0 0 -5
16 -10 35 -12 19 -2 35 0 35 4 0 5 10 2 23 -7 13 -8 26 -13 28 -11 2 3 28 6
57 7 28 2 52 6 52 11 0 4 10 3 21 -4 17 -10 23 -10 26 -1 4 10 10 9 26 -2 24
-17 87 -20 87 -5 0 6 -7 10 -15 10 -24 0 -18 20 9 30 13 5 27 14 31 19 5 10
71 8 81 -1z m3540 -505 c-3 -7 -15 -13 -26 -13 -12 0 -18 5 -15 10 3 6 1 10
-4 10 -6 0 -11 -3 -11 -7 0 -5 -16 -8 -35 -9 -19 0 -35 3 -35 7 0 4 -9 5 -20
2 -12 -3 -20 0 -20 7 0 10 -3 10 -15 0 -12 -10 -15 -10 -15 0 0 10 -3 10 -15
0 -8 -6 -19 -9 -25 -5 -6 4 -18 1 -26 -6 -12 -10 -13 -9 -9 3 6 15 -7 17 -101
17 -22 1 -33 6 -36 19 -6 23 10 38 52 47 18 4 85 29 149 56 64 28 136 58 161
69 l45 19 3 -107 c1 -58 0 -112 -2 -119z m4934 -31 c0 -90 -3 -117 -16 -129
-10 -11 -18 -13 -26 -5 -6 6 -21 7 -39 2 -16 -5 -29 -6 -29 -2 0 4 -4 0 -10
-8 -7 -12 -19 -9 -74 19 -35 17 -74 33 -86 34 -17 1 -29 17 -51 64 -26 56 -59
134 -59 137 0 0 88 1 195 1 l195 1 0 -114z m790 -2173 c30 -5 71 -11 90 -15
19 -3 98 -7 175 -9 77 -2 144 -4 149 -4 5 -1 2 -9 -5 -18 -12 -14 -12 -16 2
-11 19 7 47 -8 35 -19 -5 -4 -11 -2 -13 5 -3 6 -10 9 -15 5 -17 -10 -68 -12
-74 -2 -3 5 7 10 23 10 19 1 14 4 -17 9 -49 8 -63 4 -40 -10 20 -13 2 -12 -40
1 -46 14 -312 18 -306 4 2 -5 -8 -11 -22 -12 -17 -1 -21 2 -11 7 7 5 11 12 7
15 -3 3 -12 0 -19 -7 -20 -20 -70 -22 -63 -3 4 10 0 15 -11 15 -11 0 -15 -5
-11 -15 9 -23 -29 -33 -91 -23 -54 8 -112 6 -168 -7 -23 -5 -26 -4 -15 4 8 6
26 11 40 11 17 0 21 3 12 9 -16 10 -103 -9 -96 -21 3 -4 0 -8 -5 -8 -6 0 -11
5 -11 10 0 6 -9 10 -21 10 -13 0 -18 -4 -13 -12 6 -10 4 -10 -7 -1 -16 15 -33
17 -24 3 4 -6 -17 -10 -54 -10 -42 0 -61 4 -62 13 0 9 -2 10 -6 0 -11 -29 -23
-10 -21 32 l3 45 128 0 c70 0 127 -4 127 -8 0 -13 210 -23 308 -15 45 3 80 8
78 10 -2 3 -31 7 -63 10 -32 2 -60 7 -62 9 -8 7 133 3 189 -7z"/>
<path d="M6 3913 c-4 -8 -6 -64 -5 -123 1 -107 1 -107 25 -107 16 0 23 4 20
12 -3 8 4 11 20 9 13 -1 22 2 18 7 -3 5 -11 9 -18 9 -7 0 -21 7 -32 16 -18 14
-18 15 6 8 47 -12 45 -13 49 31 0 8 7 15 15 15 8 0 21 7 30 15 8 9 19 16 23
17 19 2 32 11 37 24 3 8 2 13 -3 9 -5 -3 -20 -1 -33 4 -14 5 -49 12 -79 16
-30 4 -58 11 -64 17 -7 7 -1 9 18 6 32 -6 32 11 0 23 -15 6 -23 3 -27 -8z"/>
<path d="M12480 3082 c-14 -2 -38 -9 -55 -17 -24 -10 -44 -11 -95 -2 -36 6
-81 10 -100 10 -73 0 -180 -10 -187 -17 -4 -4 7 -21 25 -37 26 -24 46 -33 99
-40 36 -5 80 -16 97 -24 17 -7 55 -16 85 -20 30 -3 65 -12 78 -20 13 -9 38
-15 56 -14 17 1 54 -4 81 -10 59 -14 213 -24 228 -15 6 4 58 8 116 10 77 2
109 6 119 17 14 13 11 18 -23 41 -30 19 -54 26 -106 28 -38 2 -68 7 -68 11 0
5 -4 5 -10 2 -5 -3 -10 -2 -10 4 0 6 -12 14 -27 17 -14 4 -54 23 -87 42 -52
30 -71 36 -126 36 -36 1 -76 0 -90 -2z"/>
<path d="M6459 165 c-1 -3 -2 -10 -3 -17 -1 -12 -7 -13 -130 -22 -174 -12
-113 -22 116 -19 128 2 260 4 293 5 33 0 62 4 65 9 3 4 50 10 105 13 55 2 102
5 104 5 2 1 -2 7 -8 14 -16 19 -409 16 -421 -3 -7 -11 -11 -11 -24 -1 -14 11
-16 11 -16 -3 0 -10 -4 -15 -9 -11 -5 3 -12 1 -15 -4 -5 -8 -14 -8 -45 -2 -2
1 2 7 8 14 6 8 8 17 4 20 -8 8 -22 9 -24 2z"/>
<path d="M8395 160 c-99 -11 -2 -22 159 -19 85 2 149 1 143 -3 -7 -4 -9 -8 -4
-8 4 0 16 6 27 12 15 10 27 10 49 2 16 -7 35 -8 42 -3 7 4 21 1 33 -7 27 -19
57 -18 50 1 -7 17 7 20 22 5 7 -7 27 -7 60 -1 39 8 51 7 60 -5 16 -20 29 -17
31 6 2 18 -5 20 -75 22 -154 5 -548 3 -597 -2z"/>
<path d="M8350 113 c-43 -3 -78 -9 -82 -16 -6 -9 -8 -9 -8 0 0 13 -123 13
-136 0 -4 -4 -14 -1 -22 6 -12 9 -16 9 -19 0 -4 -10 -45 -13 -161 -14 -157 0
-224 -9 -172 -22 14 -3 95 -9 180 -12 85 -3 173 -8 195 -9 22 -2 65 0 95 4 30
4 111 11 180 14 217 12 283 17 291 22 4 2 10 0 14 -6 4 -6 10 -8 14 -5 5 2 50
6 101 7 50 1 94 6 96 10 2 4 -4 7 -13 7 -10 0 -45 2 -78 5 -91 7 -391 13 -475
9z"/>
</g>
</svg>
