<?xml version="1.0" standalone="no"?>
<!DOCTYPE svg PUBLIC "-//W3C//DTD SVG 20010904//EN"
 "http://www.w3.org/TR/2001/REC-SVG-20010904/DTD/svg10.dtd">
<svg version="1.0" xmlns="http://www.w3.org/2000/svg"
 width="1400.000000pt" height="400.000000pt" viewBox="0 0 1400.000000 400.000000"
 preserveAspectRatio="xMidYMid meet">
<metadata>
Created by potrace 1.16, written by Peter Selinger 2001-2019
</metadata>
<g transform="translate(0.000000,400.000000) scale(0.100000,-0.100000)"
fill="#000000" stroke="none">
<path d="M0 3845 l0 -155 68 0 c37 0 72 -4 78 -9 5 -5 30 -11 56 -13 36 -4 45
-2 41 8 -4 10 3 14 23 14 27 0 27 -1 8 -15 -19 -14 -18 -14 3 -15 13 0 29 10
39 25 16 24 21 25 95 23 57 -2 79 -7 79 -16 0 -7 4 -11 8 -8 10 6 38 -11 30
-19 -3 -3 -15 -7 -27 -8 -27 -2 -27 -4 7 -20 20 -10 66 -13 177 -11 83 2 161
6 175 9 56 14 -34 33 -163 34 -32 1 -56 5 -53 10 13 20 180 40 369 43 76 1
110 5 118 15 9 10 8 13 -5 13 -10 0 -14 5 -11 10 9 15 75 13 75 -3 0 -11 13
-13 63 -8 5 1 5 6 1 12 -3 6 -17 8 -30 5 -29 -8 -33 10 -5 19 13 4 18 12 14
21 -4 11 2 15 28 15 68 -1 315 17 342 24 26 7 26 8 10 21 -10 7 -24 14 -31 14
-20 0 -69 40 -50 40 19 0 30 36 14 48 -36 29 -121 32 -825 32 l-721 0 0 -155z"/>
<path d="M11191 3989 c-37 -11 -37 -16 -1 -22 14 -2 33 -7 42 -11 9 -4 57 -3
105 3 84 10 290 22 435 25 36 0 70 4 74 9 11 11 -615 7 -655 -4z"/>
<path d="M13206 3968 c-10 -5 -81 -16 -159 -24 -78 -7 -162 -16 -187 -19 -25
-3 -93 -7 -152 -10 -59 -3 -140 -12 -180 -21 -40 -8 -84 -18 -98 -20 -14 -3
-38 -9 -55 -14 -16 -5 -43 -12 -59 -15 -15 -3 -26 -9 -22 -12 7 -7 311 -4 389
3 102 11 147 11 147 2 0 -5 -5 -6 -12 -2 -7 4 -8 3 -4 -4 4 -6 13 -9 21 -5 8
3 15 0 15 -6 0 -6 -10 -11 -22 -10 -13 0 -105 -9 -204 -20 -100 -11 -247 -21
-328 -23 -80 -2 -146 -6 -146 -10 0 -4 -17 -8 -37 -8 -61 1 -107 -6 -129 -18
-12 -6 -24 -8 -28 -5 -3 3 -6 2 -6 -4 0 -6 -9 -9 -22 -5 -14 3 -19 2 -14 -7 4
-6 11 -9 16 -6 5 3 11 1 14 -4 4 -5 -7 -12 -23 -16 -16 -3 -35 -13 -41 -21 -7
-7 -17 -11 -22 -8 -6 4 -14 0 -19 -7 -6 -9 -9 -10 -9 -2 0 7 -9 10 -22 7 -13
-3 -36 -6 -53 -7 -16 0 -33 -5 -37 -11 -4 -6 -33 -11 -65 -12 -32 -1 -70 -6
-85 -12 -29 -12 -40 -26 -13 -16 8 4 22 1 29 -5 11 -9 15 -9 19 1 4 9 8 10 14
2 5 -7 62 -14 143 -17 156 -7 186 -13 169 -33 -9 -11 -7 -14 9 -14 12 0 24 -4
27 -10 4 -6 -7 -10 -27 -10 -46 0 -56 -10 -54 -50 l1 -35 -50 1 c-27 1 -75 5
-105 8 -76 9 -186 7 -213 -3 -34 -13 -455 -13 -502 0 -22 6 -80 12 -130 13
-91 2 -145 18 -145 43 0 7 -9 13 -21 13 -13 0 -18 -4 -13 -12 6 -10 5 -10 -8
-1 -8 7 -18 10 -21 6 -4 -3 -13 0 -21 6 -20 17 -38 4 -30 -21 5 -16 3 -18 -7
-12 -21 13 -38 13 -46 1 -4 -7 -9 -3 -14 9 -7 17 -8 17 -8 2 -1 -10 -6 -18
-12 -18 -5 0 -7 -5 -3 -11 5 -9 -1 -10 -20 -5 -16 4 -26 2 -26 -4 0 -6 5 -8
10 -5 6 3 10 0 10 -8 0 -10 -7 -13 -20 -10 -13 3 -20 0 -20 -8 0 -10 -3 -10
-11 -2 -9 9 -19 8 -41 -3 -26 -13 -30 -13 -44 1 -23 22 -27 13 -10 -19 8 -16
17 -23 21 -17 8 14 45 14 45 1 0 -5 -4 -11 -10 -11 -11 -2 -25 -5 -37 -9 -5
-1 -16 -2 -25 -1 -9 1 -19 -7 -23 -19 -3 -11 -10 -18 -15 -15 -14 9 -74 -30
-87 -56 -7 -13 -13 -18 -13 -11 0 6 -4 12 -10 12 -5 0 -7 -13 -5 -29 3 -28 2
-29 -21 -21 -24 9 -35 -2 -14 -15 6 -3 10 -11 10 -17 0 -6 -9 -3 -20 7 -20 18
-35 14 -35 -8 0 -7 -20 -15 -43 -18 -24 -3 -47 -12 -52 -19 -4 -7 -18 -14 -31
-15 -13 -1 -25 -7 -27 -14 -2 -6 0 -11 5 -10 4 1 22 -3 38 -10 29 -13 188 -17
206 -5 13 8 11 -20 -3 -38 -7 -8 -22 -21 -33 -27 -20 -10 -20 -11 3 -17 26 -7
25 -6 11 -76 -6 -29 -13 -62 -15 -73 -3 -18 -15 -22 -101 -33 -54 -7 -118 -12
-142 -12 -34 0 -42 -3 -37 -15 7 -20 -6 -19 -30 3 -16 15 -44 21 -129 26 -61
4 -112 11 -115 15 -13 18 -191 19 -220 1 -30 -18 33 -31 145 -29 94 1 120 -2
141 -16 34 -22 139 -31 160 -14 10 8 18 9 22 3 4 -5 68 -9 144 -9 127 0 166
-6 143 -23 -6 -4 -11 -26 -12 -49 -1 -23 -7 -50 -13 -60 -11 -17 -11 -17 -6 2
5 17 3 16 -13 -4 -10 -14 -17 -30 -14 -37 2 -7 -5 -18 -17 -24 -12 -6 -19 -17
-17 -24 6 -14 -63 -14 -165 -2 -53 7 -57 6 -73 -18 -19 -29 -37 -33 -54 -12
-17 20 -91 32 -101 15 -5 -6 -6 -18 -3 -25 6 -15 -227 -20 -255 -5 -23 12
-103 -4 -118 -24 -6 -8 -32 -24 -58 -35 -47 -21 -48 -22 -50 -95 l-1 -31 89 3
c49 1 92 6 95 11 3 5 33 8 66 7 44 -3 71 2 102 16 33 16 46 18 62 9 11 -5 18
-17 15 -24 -4 -10 13 -20 57 -33 l63 -20 -29 -18 c-17 -10 -41 -25 -53 -32
-37 -22 -18 -27 34 -9 60 20 73 20 48 0 -19 -15 -18 -15 4 -11 15 4 26 -1 33
-15 6 -11 16 -18 22 -15 7 2 21 1 32 -4 17 -6 17 -8 3 -8 -19 -1 -26 -21 -7
-21 5 0 8 -4 4 -10 -3 -5 -12 -7 -20 -3 -9 3 -22 0 -30 -7 -9 -8 -27 -10 -46
-6 -18 3 -28 2 -24 -4 3 -6 15 -10 25 -10 10 0 22 -5 26 -11 3 -6 19 -9 35 -7
25 4 28 2 23 -14 -4 -14 0 -18 16 -18 13 0 19 4 14 11 -4 8 3 9 24 4 24 -5 35
-2 53 16 19 19 36 23 118 27 53 2 104 9 114 14 15 8 17 4 17 -32 l0 -40 -62 0
c-73 0 -68 -17 6 -22 27 -2 51 -7 53 -13 2 -6 -72 -10 -209 -10 -192 0 -214
-1 -231 -18 -10 -10 -15 -22 -12 -27 8 -14 35 -12 35 1 0 8 12 10 36 6 26 -4
34 -3 31 6 -3 8 7 12 32 11 67 -3 68 -3 47 -19 -11 -8 -18 -15 -15 -16 2 0 15
-2 29 -4 14 -2 52 -8 85 -13 45 -8 65 -7 80 2 11 7 37 16 58 20 32 6 37 5 37
-13 0 -14 -5 -18 -19 -14 -10 3 -34 -3 -52 -13 -29 -15 -53 -16 -187 -10 -85
3 -162 11 -172 16 -28 15 -133 12 -156 -4 -28 -21 -15 -27 68 -32 47 -4 68 -2
59 4 -22 16 1 19 59 7 l55 -12 -42 -7 c-40 -7 -61 -26 -30 -26 8 0 29 -7 47
-16 28 -14 30 -18 16 -26 -11 -6 -28 -6 -48 1 -17 6 -69 11 -114 11 -49 0 -84
4 -84 10 0 11 19 14 66 11 18 -1 35 2 38 8 4 6 -25 9 -78 9 -89 0 -130 8 -121
23 4 5 -9 9 -27 9 -28 1 -31 2 -17 13 16 12 15 37 -2 37 -6 0 -7 -4 -4 -10 3
-5 0 -10 -8 -10 -8 0 -17 -7 -21 -15 -3 -8 -14 -15 -25 -15 -13 0 -18 -5 -15
-14 6 -15 -24 -26 -75 -26 -47 0 -36 -7 24 -15 56 -7 66 -12 46 -24 -9 -6 4
-13 38 -22 28 -7 51 -16 51 -21 0 -9 -158 -11 -212 -2 -54 9 -48 28 7 22 34
-4 45 -2 45 8 0 8 -11 14 -26 14 -21 0 -25 4 -21 20 5 18 0 20 -59 20 -59 0
-82 11 -51 24 6 2 1 3 -13 1 -14 -2 -34 -4 -45 -5 l-20 -1 20 -9 c19 -8 19 -9
-2 -9 -13 -1 -23 3 -23 8 0 5 -18 7 -40 4 -32 -5 -40 -2 -40 10 0 9 5 19 10
22 6 3 10 2 10 -3 0 -6 9 -8 20 -5 35 9 11 23 -38 22 -26 0 -42 -3 -35 -5 7
-3 9 -12 6 -20 -4 -11 -9 -12 -19 -3 -8 6 -11 15 -9 20 3 4 -4 13 -16 19 -17
10 -20 9 -16 -2 2 -7 9 -12 15 -11 6 2 9 -4 5 -12 -4 -12 -9 -13 -19 -4 -7 6
-18 8 -24 4 -15 -9 -51 5 -44 17 4 7 2 8 -5 4 -6 -4 -9 -11 -6 -16 3 -5 1 -11
-5 -15 -5 -3 -10 1 -10 9 0 19 -11 21 -28 4 -9 -9 -12 -9 -12 3 0 12 -2 12
-10 -1 -5 -8 -10 -10 -10 -4 0 6 -7 11 -15 11 -8 0 -15 -4 -15 -9 0 -5 -5 -6
-10 -3 -6 4 -8 12 -4 18 3 7 -4 1 -15 -12 -13 -14 -21 -18 -21 -10 0 11 -2 11
-10 -1 -9 -13 -10 -13 -10 0 0 13 -1 13 -10 0 -6 -9 -13 -11 -17 -5 -5 6 -17
12 -27 13 -18 3 -18 2 -6 -13 12 -15 12 -19 -5 -31 -22 -16 -35 -18 -35 -4 0
6 -5 10 -11 10 -6 0 -8 -7 -5 -15 3 -8 9 -22 12 -30 5 -11 2 -13 -10 -9 -9 3
-16 15 -16 25 0 10 -3 19 -7 20 -5 0 -26 2 -48 4 -31 3 -35 1 -17 -5 12 -5 22
-15 22 -22 0 -8 -3 -9 -8 -3 -14 20 -53 35 -89 35 -47 0 -33 -14 20 -19 4 -1
7 -6 7 -12 0 -8 -4 -8 -14 0 -11 9 -18 8 -30 -4 -15 -15 -16 -15 -16 4 0 12
-5 21 -12 21 -6 0 -8 3 -4 7 4 5 33 10 63 13 32 3 58 10 61 18 3 9 -28 12
-132 12 -74 0 -137 4 -140 8 -3 5 29 8 72 6 74 -2 75 -2 17 5 -70 8 -145 44
-145 69 0 9 -5 55 -10 102 -6 47 -11 128 -11 180 -2 180 -18 139 -19 -50 l-2
-185 -53 110 c-30 61 -56 115 -58 120 -2 6 -7 7 -11 4 -4 -4 16 -65 44 -135
66 -166 68 -170 73 -228 4 -42 1 -52 -19 -73 -17 -17 -31 -22 -47 -18 -16 5
-18 4 -8 -3 11 -8 10 -12 -5 -20 -11 -6 -37 -29 -59 -52 -97 -101 -139 -139
-148 -133 -6 3 -7 1 -3 -5 3 -6 0 -14 -7 -19 -7 -4 -20 -18 -29 -31 -9 -14
-19 -19 -22 -13 -16 25 -90 -31 -80 -61 4 -12 0 -18 -11 -18 -8 0 -20 -11 -26
-24 -9 -18 -17 -22 -41 -20 -28 4 -30 2 -24 -21 7 -26 -2 -33 -19 -16 -6 6
-14 1 -21 -14 -10 -20 -9 -22 5 -17 9 3 1 -9 -18 -26 -18 -18 -39 -32 -47 -32
-8 0 -14 -10 -14 -25 0 -18 -5 -25 -19 -25 -22 0 -37 -16 -21 -22 5 -1 -1 -16
-15 -32 -14 -16 -25 -33 -25 -38 0 -5 -5 -6 -10 -3 -6 3 -13 -1 -16 -9 -3 -9
-10 -14 -14 -11 -11 7 -48 -47 -43 -61 4 -12 -62 -4 -85 10 -6 3 -13 2 -17 -3
-3 -6 -12 -8 -19 -5 -9 3 -17 -3 -21 -17 -5 -15 -10 -18 -15 -9 -5 8 -13 5
-26 -13 -11 -13 -37 -30 -59 -37 -22 -7 -58 -19 -80 -26 -50 -17 -91 -8 -181
37 l-66 33 -29 -34 c-16 -19 -29 -29 -29 -22 0 7 -5 10 -10 7 -6 -4 -20 5 -31
19 -12 15 -26 23 -34 19 -11 -4 -13 -1 -8 13 4 12 3 15 -5 10 -7 -4 -12 -2
-12 4 0 6 -4 8 -10 5 -5 -3 -10 -2 -10 4 0 6 -8 8 -17 5 -15 -5 -15 -4 -3 4 8
6 18 8 23 5 12 -7 -12 38 -29 54 -7 7 -17 13 -23 13 -6 0 -11 5 -11 10 0 6 -9
10 -19 10 -19 0 -38 25 -61 82 -7 17 -22 29 -40 33 -23 5 -29 12 -32 37 -2 17
-9 34 -17 36 -9 3 -11 0 -6 -9 6 -11 5 -11 -5 -2 -7 6 -18 10 -24 9 -6 -2 -8
-1 -3 1 4 3 7 9 7 14 0 6 -5 7 -10 4 -6 -3 -10 -2 -10 4 0 5 -3 17 -7 27 -4
12 -3 15 5 10 7 -4 12 -3 12 2 0 10 -41 24 -49 17 -2 -3 1 -5 7 -5 7 0 12 -6
12 -14 0 -9 -9 -14 -21 -13 -14 1 -19 7 -16 18 3 12 0 16 -9 12 -7 -2 -27 10
-44 29 -21 21 -33 29 -37 21 -2 -7 -10 -13 -16 -13 -8 0 -7 4 1 12 19 19 14
30 -7 18 -26 -13 -42 -13 -39 2 2 7 -3 12 -10 13 -7 0 -17 7 -22 15 -8 13 -13
13 -31 2 -27 -17 -40 -5 -15 14 11 7 16 17 12 21 -4 4 -10 3 -14 -3 -10 -16
-52 -28 -52 -15 0 6 8 11 17 11 12 0 14 3 6 11 -8 8 -17 8 -31 0 -10 -6 -22
-7 -26 -3 -4 3 -11 0 -16 -8 -8 -13 -10 -12 -10 3 0 12 -8 17 -27 18 -51 2
-58 4 -56 14 1 6 -10 16 -24 22 -21 10 -24 10 -19 -3 7 -17 4 -17 -29 -2 -14
6 -25 15 -25 20 0 5 -11 6 -25 2 -15 -4 -25 -2 -25 5 0 6 -7 11 -15 11 -8 0
-23 10 -34 21 -18 20 -24 21 -63 11 l-43 -11 41 3 c33 2 41 0 40 -12 -2 -8
-13 -17 -25 -19 -13 -2 -20 1 -16 7 4 6 -8 10 -29 11 -51 2 -75 1 -83 -1 -28
-6 -169 3 -174 12 -4 6 -18 9 -33 6 -14 -3 -27 -1 -28 3 -2 5 -16 4 -33 -1
-28 -9 -29 -10 -3 -6 34 4 47 -21 16 -33 -16 -6 1 -10 61 -15 82 -7 83 -8 63
-26 -11 -10 -22 -23 -23 -29 -5 -12 -80 -18 -97 -7 -6 4 -28 -1 -47 -10 -28
-13 -48 -15 -88 -9 -106 16 -266 8 -254 -13 3 -4 -35 -8 -84 -9 -50 -2 -91 1
-94 7 -3 6 2 9 12 8 28 -3 93 13 93 23 0 5 -11 9 -25 9 -14 0 -25 5 -25 10 0
6 12 10 27 9 41 -2 133 24 133 37 0 16 -33 25 -110 30 -74 6 -98 6 -155 4
l-40 -2 35 -16 c23 -10 61 -15 112 -13 43 1 78 -3 78 -8 0 -15 -29 -21 -107
-21 -66 0 -74 -2 -69 -17 4 -9 1 -20 -6 -25 -9 -5 -5 -8 11 -8 15 0 21 -4 15
-9 -10 -10 -114 -19 -114 -11 0 9 -172 26 -218 22 -32 -3 -42 -8 -38 -18 3 -9
-2 -14 -14 -14 -22 0 -27 15 -8 26 7 4 28 10 47 13 53 9 52 30 -1 24 -24 -2
-50 -7 -58 -9 -8 -3 -15 -4 -15 -3 0 1 -10 -3 -23 -10 -29 -15 -63 -5 -60 17
3 14 -8 18 -62 22 l-65 6 85 6 c104 8 160 18 160 28 0 5 12 13 28 18 25 10 23
10 -20 11 -26 1 -49 -3 -53 -8 -7 -12 -87 10 -92 24 -2 6 41 8 119 4 107 -5
150 -3 243 14 11 3 39 8 62 12 24 4 43 11 43 15 0 4 15 5 33 1 42 -9 268 -4
370 8 4 1 7 9 6 19 0 9 -3 12 -5 6 -3 -7 -14 -10 -24 -7 -11 3 -17 10 -13 16
4 6 0 8 -10 4 -9 -3 -19 -2 -22 3 -7 11 -33 9 -52 -3 -7 -5 -13 -4 -13 1 0 6
-9 8 -20 5 -11 -3 -20 0 -20 6 0 6 -5 11 -11 11 -5 0 -7 -4 -4 -10 3 -5 1 -10
-4 -10 -6 0 -11 4 -11 8 0 5 -18 15 -40 22 -22 7 -40 19 -40 27 0 7 -32 29
-70 48 -71 34 -116 39 -190 21 -14 -4 -38 -2 -55 2 -21 7 -38 5 -58 -5 -25
-13 -33 -13 -60 0 -38 17 -137 31 -137 20 0 -5 15 -15 32 -22 31 -13 31 -14
10 -18 -13 -3 -30 1 -39 9 -9 7 -14 9 -11 3 3 -6 -7 -10 -23 -11 -16 -1 -29 3
-29 9 0 6 -9 2 -21 -9 -12 -10 -23 -14 -27 -9 -4 6 -11 10 -17 11 -29 3 -54
18 -58 35 -3 11 -19 24 -37 30 -17 6 -28 14 -25 18 11 11 40 6 51 -8 8 -11 30
-14 79 -13 71 2 106 12 42 12 -26 0 -39 6 -47 19 -7 14 -6 21 3 24 23 8 0 17
-52 21 -52 4 -84 16 -42 16 17 0 21 4 17 15 -4 12 5 15 52 16 31 0 66 3 77 5
11 2 47 7 80 10 62 5 115 21 115 34 0 4 32 8 70 9 39 1 79 6 89 13 11 7 28 8
47 3 16 -5 38 -9 49 -9 13 -1 21 -9 23 -23 3 -17 11 -23 30 -25 15 0 41 -2 57
-3 17 -1 34 1 40 4 5 3 22 4 37 2 31 -3 38 18 13 39 -17 14 -142 60 -147 54
-2 -2 -28 4 -58 12 -30 9 -65 17 -77 19 -12 2 -34 6 -50 9 -15 3 -45 8 -67 11
-45 5 -43 4 -48 29 -2 16 7 23 47 34 l50 14 -49 20 c-27 10 -70 22 -95 25 -25
3 -61 17 -79 31 -33 25 -146 62 -191 62 -29 0 -162 39 -175 51 -6 5 -2 17 12
29 12 11 19 27 16 35 -8 20 4 23 136 28 69 3 116 10 118 16 2 6 11 11 19 11 9
0 14 3 10 6 -3 3 -31 7 -61 9 -31 1 -62 7 -69 14 -8 6 -16 9 -19 6 -3 -3 -23
1 -45 9 -22 8 -75 17 -119 21 -43 4 -103 16 -132 26 -29 10 -78 21 -110 24
-31 4 -66 9 -76 12 -19 5 -19 6 -1 19 10 8 33 14 49 14 31 0 133 28 108 29 -8
1 -2 11 12 25 15 13 36 22 48 21 13 -1 31 -3 41 -4 9 0 17 -8 17 -16 0 -24 17
-17 24 10 6 24 26 36 26 15 0 -5 -5 -10 -11 -10 -5 0 -7 -4 -4 -10 8 -13 62
-13 70 0 4 6 11 8 16 4 5 -3 16 0 24 6 10 8 15 9 15 2 0 -10 114 -7 131 4 4 2
10 0 14 -6 8 -14 45 -13 45 1 0 7 9 9 22 6 12 -4 27 -2 33 3 6 5 31 4 60 -2
67 -13 185 -18 185 -7 0 5 3 8 8 7 4 -1 48 4 97 12 80 11 87 14 61 23 -21 7
-25 12 -15 18 11 7 9 9 -6 10 l-20 0 20 9 c17 7 17 9 3 9 -33 2 -12 81 20 81
27 0 41 -76 17 -92 -8 -6 13 -11 28 -7 1 0 14 -4 30 -10 21 -8 27 -8 27 2 0
10 27 13 107 13 59 0 108 5 110 10 2 5 21 8 43 8 47 -2 97 34 77 56 -9 9 -8
11 8 8 12 -2 29 6 42 20 12 13 27 22 35 21 34 -4 47 2 45 22 -1 14 -7 19 -19
16 -19 -5 -25 8 -8 18 6 4 8 11 5 16 -4 5 1 9 10 9 9 0 13 5 9 11 -12 19 19
29 33 11 7 -9 13 -12 13 -6 0 7 11 15 25 18 35 9 31 25 -5 21 -18 -3 -28 0
-25 5 4 6 -1 10 -10 10 -10 0 -13 5 -9 11 5 8 0 10 -17 6 -20 -5 -25 -2 -26
13 -1 10 6 21 15 23 9 3 3 5 -14 6 -17 0 -37 8 -44 16 -8 9 -17 12 -24 7 -6
-5 -45 -8 -86 -7 -45 2 -83 -2 -95 -10 -18 -11 -39 -17 -100 -32 -11 -2 -42
-6 -70 -7 -27 -2 -52 -5 -55 -6 -3 -1 -8 -2 -12 -1 -5 0 -8 -10 -8 -23 0 -17
7 -26 25 -30 41 -10 28 -26 -20 -26 -32 0 -52 -6 -68 -20 -15 -15 -30 -19 -52
-16 -16 3 -58 1 -93 -5 -69 -12 -112 -6 -112 15 0 20 -21 25 -45 13 -11 -6
-38 -12 -60 -14 -22 -2 -51 -5 -65 -7 -14 -2 -29 0 -35 4 -5 4 -26 13 -46 19
-38 12 -77 3 -106 -26 -7 -6 -28 -10 -47 -8 -27 2 -39 -3 -64 -30 -24 -25 -45
-35 -94 -45 -34 -6 -73 -20 -87 -31 -18 -14 -33 -18 -57 -13 -19 3 -56 1 -83
-6 -27 -6 -55 -12 -63 -14 -8 -1 -27 -11 -42 -23 -16 -13 -49 -24 -84 -29 -64
-8 -108 -21 -98 -31 3 -3 103 -6 221 -5 211 2 215 1 203 -18 -7 -10 -14 -17
-16 -15 -2 2 -21 -3 -42 -10 -28 -10 -40 -11 -43 -2 -2 8 -16 6 -48 -5 -24 -9
-71 -19 -104 -21 -77 -7 -95 -11 -103 -24 -4 -6 -29 -12 -57 -14 -70 -3 -97 0
-90 10 3 5 1 12 -4 15 -5 4 -12 2 -16 -4 -9 -15 -96 -12 -114 4 -22 18 -196
57 -276 61 -36 1 -78 10 -97 21 -26 13 -62 18 -163 20 -163 4 -296 14 -314 24
-19 10 -61 -9 -55 -24 7 -19 -84 -43 -131 -34 -42 8 -221 28 -266 30 -15 1
-40 -8 -55 -19 -16 -11 -49 -25 -74 -32 -81 -24 -210 -24 -210 0 0 5 11 7 24
3 38 -9 41 14 3 32 -41 20 -94 8 -89 -20 2 -10 -4 -16 -17 -16 -11 0 -41 -7
-67 -16 -41 -14 -48 -14 -55 -1 -6 10 -29 15 -80 16 -40 1 -76 4 -80 7 -12 7
-79 -7 -79 -17 0 -24 113 -49 125 -28 5 7 11 6 20 -1 9 -7 27 -9 46 -5 23 5
30 4 24 -5 -4 -6 -9 -9 -12 -6 -3 3 -12 -2 -20 -10 -10 -9 -34 -14 -71 -13
-31 1 -70 -5 -87 -12 -16 -6 -39 -14 -50 -16 -10 -2 -22 -7 -25 -12 -3 -5 -14
-9 -25 -9 -43 1 -53 -3 -58 -21 -4 -17 -14 -19 -81 -19 -47 -1 -74 3 -70 9 3
5 0 17 -8 26 -7 10 -8 14 -1 10 6 -4 13 -4 16 0 2 5 2 2 1 -4 -2 -7 2 -13 9
-13 7 0 13 13 13 29 2 28 0 29 -28 19 -25 -9 -31 -7 -45 11 -12 19 -17 20 -31
9 -13 -11 -14 -11 -7 1 6 11 3 13 -13 9 -13 -4 -23 0 -26 8 -6 16 -36 19 -36
4 0 -6 -11 -5 -27 3 -21 9 -27 9 -31 -1 -5 -16 -42 -16 -42 1 0 9 -2 9 -9 -1
-7 -11 -9 -11 -14 1 -4 10 -17 14 -39 13 -18 -2 -36 2 -40 8 -5 7 -8 7 -8 -2
0 -7 -5 -10 -12 -6 -7 5 -8 3 -3 -6 5 -8 3 -11 -6 -8 -8 3 -22 1 -31 -4 -13
-6 -18 -5 -18 7 0 8 -4 15 -10 15 -5 0 -10 -6 -10 -12 0 -9 -3 -9 -8 -2 -9 14
-45 27 -37 14 3 -6 1 -10 -4 -10 -7 0 -11 -26 -11 -65 0 -55 3 -65 18 -65 16
-1 16 -1 0 -14 -17 -12 -18 -88 -18 -1335 l0 -1321 7000 0 7000 0 0 1476 c0
1354 -2 1476 -16 1470 -9 -4 -24 -1 -33 6 -9 7 -5 0 8 -15 27 -30 21 -48 -9
-29 -14 9 -20 9 -24 -1 -4 -7 -5 -3 -3 8 3 16 -1 20 -22 20 -14 0 -31 -6 -37
-14 -9 -11 -13 -11 -19 -1 -5 9 -9 9 -14 1 -11 -18 -51 -22 -51 -6 0 7 -7 21
-16 29 -8 9 -13 19 -10 24 2 4 1 14 -4 21 -13 23 -29 2 -26 -34 2 -36 -19 -50
-30 -20 -4 8 -16 15 -28 14 -20 0 -20 -1 3 -10 23 -9 23 -10 5 -23 -17 -13
-20 -12 -26 5 -9 24 -17 24 -34 2 -13 -17 -13 -17 -14 0 0 10 -4 15 -10 12 -5
-3 -10 -1 -10 4 0 10 20 15 47 12 6 -1 14 3 17 7 3 5 19 8 36 6 24 -3 30 0 30
16 0 43 -51 54 -240 53 -107 -1 -140 -4 -140 -14 0 -9 -29 -21 -65 -25 -16 -2
-58 -12 -93 -21 -81 -23 -82 -46 -2 -47 40 -1 54 -5 52 -14 -1 -8 2 -11 8 -7
5 3 10 -1 10 -10 0 -12 -6 -15 -22 -11 -13 3 -17 3 -10 0 6 -3 12 -11 12 -16
0 -6 -3 -8 -7 -5 -3 4 -16 0 -29 -8 -20 -13 -23 -12 -28 1 -3 8 -2 12 4 9 6
-3 10 -1 10 4 0 6 -7 11 -15 11 -8 0 -15 -4 -15 -10 0 -5 -8 -10 -17 -10 -13
0 -14 3 -5 12 7 7 12 19 12 28 0 12 -2 12 -9 2 -4 -7 -17 -15 -27 -16 -10 -2
-18 -10 -18 -18 1 -10 -5 -14 -16 -11 -11 3 -16 11 -13 23 4 15 1 18 -17 13
-16 -4 -18 -8 -9 -14 8 -4 10 -11 6 -16 -14 -13 -26 19 -16 44 6 17 5 23 -5
23 -10 0 -12 7 -8 22 3 14 2 19 -6 14 -17 -10 -15 -4 13 59 22 48 29 55 53 55
68 -2 210 12 299 29 54 11 126 22 160 26 34 4 67 13 74 21 6 8 29 14 51 14 21
0 53 7 69 16 17 8 45 16 61 16 l31 1 -21 18 c-21 17 -21 17 48 34 39 9 70 21
70 27 0 5 8 8 18 7 9 -1 32 -1 50 0 l32 1 0 224 c0 170 -3 225 -12 229 -10 4
-10 7 0 18 6 7 12 28 12 46 0 38 7 37 -165 34 -179 -2 -288 -9 -335 -20 -25
-6 -107 -12 -182 -15 -144 -4 -148 -3 -132 38 5 12 11 13 32 5 15 -6 27 -11
27 -11 0 -1 10 4 23 11 25 14 29 31 6 31 -8 0 -12 5 -9 10 3 6 24 10 46 10 21
0 39 3 39 8 0 4 17 8 37 10 44 3 59 14 41 30 -18 14 -66 23 -73 13 -6 -10
-105 -10 -105 0 0 13 -26 17 -44 7z m-1123 -585 c-6 -16 0 -16 87 3 14 3 105
6 203 6 147 1 180 -1 193 -14 14 -13 7 -16 -63 -27 -43 -6 -98 -16 -123 -21
-25 -5 -79 -11 -120 -14 -41 -4 -115 -10 -165 -15 -49 -5 -97 -5 -105 -1 -8 5
-21 5 -30 0 -17 -9 -155 -30 -198 -30 -52 0 -6 19 83 35 50 9 98 17 108 18 9
1 17 7 17 14 0 7 18 16 41 19 29 5 44 13 51 30 12 26 31 23 21 -3z m-7202
-177 c9 -6 17 -15 18 -21 0 -5 5 -10 10 -10 5 0 13 -4 18 -9 5 -5 3 -6 -4 -2
-7 4 -13 2 -13 -3 0 -6 12 -11 26 -11 17 0 23 4 18 13 -5 8 -4 9 4 2 6 -6 9
-21 5 -34 -4 -17 -8 -19 -14 -9 -7 11 -11 11 -18 -1 -8 -12 -13 -12 -33 1 -24
16 -110 29 -102 16 5 -8 -12 -12 -31 -8 -5 1 -23 3 -40 4 -16 1 -39 7 -50 13
-20 12 -20 12 1 32 12 11 41 22 64 25 23 2 44 7 47 10 10 9 77 4 94 -8z m8109
-139 c0 -2 -10 -23 -23 -47 -16 -30 -30 -44 -47 -47 -14 -2 -26 -8 -28 -13 -2
-5 -11 -7 -20 -4 -15 5 -15 4 -2 -8 18 -16 25 -43 9 -32 -6 4 -24 -8 -41 -27
-17 -19 -28 -29 -24 -23 3 7 -3 14 -14 17 -15 4 -20 0 -20 -16 0 -17 -2 -19
-9 -7 -6 8 -7 18 -4 24 3 5 1 6 -5 2 -7 -4 -12 -13 -12 -19 0 -7 -17 -13 -43
-14 -23 -1 -36 1 -29 4 6 2 12 12 12 21 0 13 -2 14 -9 4 -4 -8 -11 -13 -15
-13 -23 3 -30 0 -17 -8 10 -7 11 -10 1 -16 -8 -5 -18 -1 -26 9 -8 11 -13 13
-16 5 -3 -9 -9 -9 -27 1 -15 7 -21 8 -17 1 7 -11 -14 -15 -66 -11 -20 1 -28
-3 -28 -14 0 -9 -4 -16 -10 -16 -5 0 -10 7 -10 16 0 14 -3 14 -15 4 -12 -10
-15 -10 -15 1 0 11 -2 11 -10 -1 -13 -21 -130 -22 -130 0 0 11 -3 11 -12 2 -7
-7 -23 -11 -37 -11 -17 1 -20 3 -8 6 9 2 17 9 17 15 0 5 -6 8 -12 5 -7 -2 -21
0 -32 5 -13 7 -16 7 -12 -1 4 -6 2 -11 -3 -11 -6 0 -11 5 -11 11 0 6 -7 9 -15
6 -8 -4 -17 -2 -21 4 -3 6 -34 10 -67 9 -111 -3 -125 -1 -131 17 -4 11 -1 22
9 29 12 9 -7 11 -82 7 -67 -3 -95 -2 -88 5 6 6 46 13 90 15 82 4 256 22 356
35 39 6 59 4 67 -4 6 -6 9 -14 6 -16 -7 -8 142 -10 181 -2 60 11 43 23 -52 36
-7 1 -13 5 -13 10 0 5 24 9 53 8 28 -1 82 6 118 14 79 19 409 45 409 33z
m-2490 -77 c13 -8 13 -13 2 -31 -13 -21 -12 -21 45 -15 164 15 233 18 233 8 0
-5 -30 -12 -67 -15 -124 -11 -192 -24 -225 -45 -36 -22 -142 -45 -221 -47 -48
-2 -49 -1 -43 25 3 15 8 50 12 79 l7 51 121 0 c66 0 128 -5 136 -10z m1020
-211 c0 -5 -8 -9 -17 -9 -10 0 -42 -9 -72 -21 -43 -16 -78 -20 -180 -21 -112
0 -153 -4 -226 -21 -11 -2 -46 -8 -77 -11 -54 -7 -86 -25 -60 -34 7 -2 10 -7
8 -11 -3 -4 12 -5 32 -3 34 4 36 4 22 -13 -14 -17 -13 -17 6 -7 16 9 21 8 21
-4 0 -13 -47 -32 -102 -40 -11 -2 -98 -6 -194 -9 -95 -3 -177 -8 -183 -11 -5
-4 -31 -8 -56 -11 -26 -2 -60 -6 -77 -7 -16 -2 -36 2 -44 8 -11 8 -13 8 -7 -1
5 -9 -2 -13 -25 -13 -26 0 -29 2 -20 14 9 11 9 15 0 18 -7 2 -18 20 -25 39 -8
23 -13 27 -13 14 -1 -16 -3 -17 -11 -5 -6 10 -8 -6 -5 -45 l4 -60 -10 66 c-6
38 -6 93 -2 130 l8 64 137 3 c75 2 179 -2 230 -8 104 -13 277 -16 323 -6 17 4
53 7 82 7 29 0 55 4 58 9 3 4 33 7 68 4 57 -3 195 -3 324 0 29 0 53 4 53 8 0
4 7 5 15 2 8 -4 15 -10 15 -15z m394 -85 c19 -7 21 -24 4 -24 -7 0 -35 -12
-63 -26 -60 -30 -165 -42 -165 -19 0 13 -12 19 -32 16 -4 0 -12 8 -18 19 -9
18 -7 20 17 21 70 1 198 11 202 15 6 6 37 5 55 -2z m-1110 -371 c-15 -11 -14
-14 12 -24 16 -6 46 -9 66 -6 28 4 35 2 31 -9 -3 -9 2 -14 16 -14 12 0 21 -4
21 -8 0 -9 -56 -35 -100 -48 -25 -7 -25 -7 -6 15 19 21 19 21 -13 21 -17 0
-42 7 -55 15 -18 12 -55 16 -167 16 -183 1 -239 7 -239 25 0 8 3 14 8 14 41 2
178 13 179 14 1 1 61 2 133 2 105 -1 127 -3 114 -13z m766 -113 c13 -8 13 -13
2 -31 -14 -21 -13 -22 32 -17 25 3 46 2 46 -3 0 -5 11 -7 25 -3 21 5 25 3 25
-15 0 -26 28 -41 77 -41 21 0 45 -5 53 -11 11 -7 -26 -8 -125 -3 -77 3 -188 6
-247 5 -59 -1 -109 3 -112 8 -3 4 30 12 74 15 44 4 80 10 80 14 0 11 -238 14
-258 3 -13 -7 -22 -7 -29 0 -8 8 -25 8 -55 2 -56 -12 -123 -7 -167 13 -23 11
-36 13 -44 5 -6 -6 -52 -9 -121 -6 -61 2 -97 1 -81 -1 17 -3 35 -11 40 -18 6
-7 17 -15 25 -18 8 -3 -11 -9 -42 -13 -46 -6 -63 -4 -82 9 -16 10 -27 12 -31
5 -4 -6 -29 -7 -66 -3 -41 5 -59 3 -59 -5 0 -6 8 -11 18 -11 14 0 15 -2 2 -10
-19 -12 -118 -11 -126 1 -3 5 7 9 23 10 25 1 24 2 -12 14 -22 7 -39 18 -38 24
2 6 -3 11 -10 11 -7 0 -17 8 -23 18 -11 16 -5 17 105 9 64 -5 118 -12 121 -17
7 -12 79 -8 77 4 -4 19 72 26 261 24 158 -1 192 -3 192 -15 0 -8 4 -12 9 -9 4
3 64 6 132 7 89 1 130 5 147 15 12 8 22 12 22 10 0 -2 17 4 38 14 41 21 79 25
102 10z m-7794 -501 c43 -2 97 0 119 4 27 4 50 2 70 -8 17 -9 22 -13 13 -11
-10 3 -20 1 -24 -5 -11 -19 -59 -31 -123 -30 -49 0 -67 -4 -76 -16 -8 -11 -28
-17 -56 -17 -24 -1 -47 -5 -51 -11 -4 -5 -10 -6 -14 -3 -14 15 29 42 63 40 22
-2 32 1 28 8 -3 5 2 10 11 10 23 0 9 13 -19 17 -36 5 -49 12 -42 23 4 6 10 8
14 6 4 -3 43 -6 87 -7z"/>
<path d="M945 3329 c9 -28 26 -52 33 -45 2 3 17 -1 33 -9 15 -8 41 -15 57 -15
16 0 41 -9 56 -21 25 -20 28 -20 46 -4 10 9 33 19 52 22 18 3 36 9 39 15 3 5
15 -2 26 -16 l20 -25 22 20 c11 11 21 29 21 41 0 19 -4 20 -37 13 -64 -14
-126 -10 -183 12 -30 12 -86 24 -124 28 l-68 8 7 -24z"/>
<path d="M0 3187 c0 -32 58 -91 75 -77 18 15 76 15 103 1 12 -6 22 -20 22 -31
0 -19 8 -23 67 -35 17 -3 37 -13 44 -22 11 -13 7 -14 -37 -7 -51 9 -79 9 -129
0 -85 -14 -85 -14 -106 15 -11 16 -24 29 -28 29 -3 0 -8 -33 -9 -74 l-2 -73
61 -7 c73 -9 89 -14 89 -31 0 -17 25 -26 38 -13 5 5 26 11 45 13 19 2 44 8 55
14 11 6 35 8 52 4 32 -6 33 -6 28 30 -2 21 -2 38 2 38 3 1 16 3 30 4 14 2 42
8 63 13 21 6 39 6 43 1 3 -5 14 -9 24 -9 10 0 20 -5 22 -11 2 -6 24 -11 48
-11 120 2 128 3 126 19 -1 19 30 30 94 33 25 1 54 5 65 10 31 12 -43 24 -110
16 -57 -6 -72 4 -33 21 l22 10 -22 19 c-34 29 -173 46 -238 30 -46 -12 -58
-11 -105 5 -30 10 -61 27 -70 38 -10 12 -24 17 -40 14 -13 -2 -53 8 -88 22
-47 18 -83 25 -133 25 -64 0 -68 -1 -68 -23z"/>
<path d="M1305 3015 c-5 -2 -27 -6 -48 -10 -22 -3 -35 -10 -31 -16 3 -6 15 -9
25 -6 11 3 19 1 19 -4 0 -5 26 -9 58 -9 31 0 93 -6 137 -14 44 -8 133 -14 197
-14 110 1 116 2 105 19 -15 24 -27 28 -117 41 -72 10 -324 19 -345 13z"/>
</g>
</svg>
